<?xml version="1.0" encoding="utf-8"?>
<!-- Generator: Adobe Illustrator 17.0.0, SVG Export Plug-In . SVG Version: 6.00 Build 0)  -->
<!DOCTYPE svg PUBLIC "-//W3C//DTD SVG 1.1//EN" "http://www.w3.org/Graphics/SVG/1.1/DTD/svg11.dtd">
<svg version="1.1" id="Layer_1" xmlns="http://www.w3.org/2000/svg" xmlns:xlink="http://www.w3.org/1999/xlink" x="0px" y="0px"
	 width="595.28px" height="595.28px" viewBox="0 0 595.28 595.28" enable-background="new 0 0 595.28 595.28" xml:space="preserve">
<g id="Layer_2">
	<circle fill="#FFFFFF" cx="297.64" cy="297.64" r="297.64"/>
	<path fill="#613132" d="M394.376,142.527c0.12,9.71,1.079,19.539,2.517,29.009c1.199,7.552,2.757,15.224,5.514,22.416
		c5.154,13.665,15.703,25.533,21.457,39.318c15.823,37.759,11.148,78.875,8.631,118.792c-1.319,21.097-2.757,42.554-9.71,62.693
		c-3.716,10.788-12.227,8.151-22.536,8.87c-10.908,0.719-21.817,1.558-32.725,2.278c-22.296,1.558-44.592,3.117-66.888,4.675
		c-16.183,1.199-32.485,2.278-48.668,3.476c-9.47,0.719-18.94,2.278-28.409,0.719c-10.189-1.678-41.116-2.158-45.311-14.984
		c-8.511-29.368-13.545-59.696-14.744-90.143c-1.199-27.81-2.997-59.576,5.514-86.427c6.593-20.858,20.378-38.359,31.646-56.819
		c0,0,8.031-43.273,5.634-44.113c-2.397-0.839,43.873,5.035,43.873,5.035l67.128,10.669L394.376,142.527z"/>
	<path fill="#CE8C60" d="M253.168,346.667c0,0,11.867,33.804-0.719,54.062v25.053l8.99,14.385l25.772,3.356l28.529-1.558
		l18.94,1.558l2.757-20.138l10.788-12.347l-6.233-9.23c0,0-10.429-27.331-1.558-53.942L253.168,346.667z"/>
	<path fill="#D9996C" d="M210.374,278.94c0,0,18.58,62.333,66.528,82.711c0,0,21.577,11.388,40.756,0
		c0,0,44.952-14.385,66.529-82.711c-0.24,0.839,6.473-0.719,6.833-0.839c6.233-3.356,7.672-11.148,9.11-17.501
		c2.038-9.11,4.435-18.34,4.195-27.69c-0.24-8.271-1.199-16.422-10.189-19.299c-2.997,2.997-5.035,6.953-5.514,11.148l-3.237,0.36
		l0.839-16.422c0,0-35.961-12.347-41.116-66.289c0,0-64.73,63.172-134.615,62.333c-0.839,1.558,0,5.874,0,7.552
		c0,2.637,0,5.274,0,7.911c0,1.798,0,3.476-0.839,4.915c-0.839-0.24-2.158-0.479-2.877-0.959c-1.798-1.319-1.319-1.918-1.798-3.836
		c-0.719-2.877-0.12-6.953-4.555-6.953c-3.956,0-7.672,5.514-8.271,8.87C190.235,230.872,191.554,284.574,210.374,278.94z"/>
	<path fill="#336E7B" d="M110.041,530.669c0,0,9.47-70.364,14.385-77.796c0,0,12.227-28.17,67.368-40.277l61.134-11.867
		c0,0,3.356,35.002,46.63,35.002c0,0,34.643,1.438,43.034-35.002c0,0,67.248,10.669,85.348,20.738c0,0,30.327,8.751,43.273,31.286
		c0,0,6.833,20.977,11.388,50.226l3.356,24.574c0,0-33.204,30.447-90.862,50.346C323.652,602.712,216.247,611.582,110.041,530.669z"
		/>
	<path fill="#161516" d="M201.383,182.324c0,0,107.884-24.094,197.667,0l2.757-88.225l-103.928,31.167l-98.654-31.167
		L201.383,182.324z"/>
	<path fill="#161516" d="M224.998,129.94l75.519,20.498c41.116-10.309,82.112-20.498,123.228-30.807
		c15.583-3.836,34.283-6.233,49.027-11.747c2.158-0.839,3.956-2.757,3.476-4.795c-0.24-1.438-1.199-2.757-2.637-3.356
		c-17.621-8.511-32.965-11.148-49.507-15.224c-25.652-6.353-51.545-12.227-77.317-18.101c-11.867-2.757-24.334-4.675-35.961-8.151
		c-11.747-3.476-22.536,1.079-33.684,4.076c-10.309,2.757-20.738,5.274-31.167,7.911c-25.533,6.353-51.185,12.467-76.837,18.58
		c-12.586,2.997-25.173,5.994-37.759,8.87c0,0-11.388,6.233,2.997,11.028l47.948,13.066l-9.59,16.302c0,0-20.977,5.874-6.593,22.656
		c0,0-2.997,40.756-53.343,72.762c0,0,5.874,12.227,29.368,17.261c0,0,23.615,4.555,35.122-24.454c0,0,11.628-20.977,9.23-65.57
		c0,0,12.586-5.274,4.795-18.46S234.587,118.433,224.998,129.94z"/>
</g>
</svg>
