<?xml version="1.0" encoding="utf-8"?>
<!-- Generator: Adobe Illustrator 17.0.0, SVG Export Plug-In . SVG Version: 6.00 Build 0)  -->
<!DOCTYPE svg PUBLIC "-//W3C//DTD SVG 1.1//EN" "http://www.w3.org/Graphics/SVG/1.1/DTD/svg11.dtd">
<svg version="1.1" id="Layer_1" xmlns="http://www.w3.org/2000/svg" xmlns:xlink="http://www.w3.org/1999/xlink" x="0px" y="0px"
	 width="130.574px" height="130.575px" viewBox="440.6 0 130.574 130.575" enable-background="new 440.6 0 130.574 130.575"
	 xml:space="preserve">
<g id="Layer_2">
	<circle fill="#A3D5E0" cx="505.887" cy="65.285" r="65.287"/>
	<path fill="#633232" d="M527.106,31.261c0.026,2.13,0.236,4.286,0.552,6.363c0.263,1.657,0.605,3.339,1.209,4.917
		c1.13,2.998,3.444,5.601,4.707,8.624c3.471,8.283,2.445,17.301,1.893,26.057c-0.289,4.628-0.605,9.334-2.13,13.751
		c-0.815,2.367-2.682,1.788-4.943,1.945c-2.393,0.158-4.786,0.342-7.178,0.5c-4.891,0.341-9.781,0.684-14.672,1.025
		c-3.549,0.263-7.126,0.5-10.675,0.763c-2.077,0.158-4.154,0.5-6.231,0.158c-2.235-0.368-9.019-0.474-9.939-3.287
		c-1.867-6.442-2.972-13.094-3.234-19.773c-0.263-6.1-0.658-13.068,1.209-18.958c1.446-4.575,4.47-8.414,6.941-12.463
		c0,0,1.762-9.492,1.235-9.676c-0.526-0.184,9.624,1.104,9.624,1.104l14.725,2.34L527.106,31.261z"/>
	<path fill="#D69060" d="M496.132,76.039c0,0,2.603,7.415-0.158,11.858v5.496l1.972,3.155l5.653,0.736l6.258-0.341l4.154,0.341
		l0.605-4.417l2.367-2.708l-1.368-2.024c0,0-2.288-5.995-0.341-11.832L496.132,76.039z"/>
	<path fill="#E29D6D" d="M486.745,61.183c0,0,4.076,13.672,14.593,18.143c0,0,4.733,2.498,8.94,0c0,0,9.86-3.155,14.593-18.143
		c-0.052,0.184,1.42-0.158,1.499-0.184c1.368-0.736,1.683-2.445,1.998-3.839c0.447-1.998,0.973-4.023,0.92-6.074
		c-0.053-1.814-0.263-3.602-2.235-4.233c-0.658,0.658-1.104,1.525-1.209,2.445l-0.71,0.079l0.184-3.602c0,0-7.888-2.708-9.019-14.54
		c0,0-14.199,13.857-29.527,13.672c-0.184,0.342,0,1.289,0,1.657c0,0.579,0,1.157,0,1.735c0,0.394,0,0.763-0.184,1.078
		c-0.184-0.053-0.474-0.105-0.631-0.21c-0.394-0.289-0.289-0.421-0.394-0.841c-0.158-0.631-0.026-1.525-0.999-1.525
		c-0.868,0-1.683,1.209-1.814,1.945C482.328,50.64,482.617,62.419,486.745,61.183z"/>
	<path fill="#337280" d="M464.738,116.399c0,0,2.078-15.434,3.155-17.064c0,0,2.682-6.179,14.777-8.835l13.41-2.603
		c0,0,0.736,7.678,10.228,7.678c0,0,7.599,0.315,9.439-7.678c0,0,14.751,2.34,18.721,4.548c0,0,6.652,1.919,9.492,6.862
		c0,0,1.499,4.601,2.498,11.017l0.736,5.39c0,0-7.284,6.679-19.931,11.043C511.593,132.202,488.034,134.147,464.738,116.399z"/>
	<path fill="#161616" d="M484.773,39.99c0,0,23.664-5.285,43.358,0l0.605-19.352l-22.796,6.836l-21.64-6.836L484.773,39.99z"/>
	<path fill="#161616" d="M489.953,28.5l16.565,4.496c9.019-2.261,18.011-4.496,27.03-6.757c3.418-0.841,7.52-1.368,10.754-2.577
		c0.474-0.184,0.868-0.605,0.763-1.052c-0.053-0.315-0.263-0.605-0.579-0.736c-3.865-1.867-7.231-2.445-10.859-3.339
		c-5.627-1.394-11.306-2.682-16.959-3.971c-2.603-0.605-5.337-1.025-7.888-1.788c-2.577-0.763-4.943,0.236-7.389,0.894
		c-2.261,0.605-4.548,1.157-6.836,1.735c-5.601,1.394-11.227,2.734-16.854,4.076c-2.761,0.658-5.522,1.315-8.283,1.945
		c0,0-2.498,1.368,0.658,2.419l10.518,2.866l-2.104,3.576c0,0-4.602,1.289-1.446,4.97c0,0-0.658,8.94-11.701,15.96
		c0,0,1.289,2.682,6.442,3.787c0,0,5.18,0.999,7.704-5.364c0,0,2.55-4.601,2.024-14.382c0,0,2.761-1.157,1.052-4.049
		S492.056,25.976,489.953,28.5z"/>
</g>
</svg>
