<?xml version="1.0" encoding="utf-8"?>
<!-- Generator: Adobe Illustrator 17.0.0, SVG Export Plug-In . SVG Version: 6.00 Build 0)  -->
<!DOCTYPE svg PUBLIC "-//W3C//DTD SVG 1.1//EN" "http://www.w3.org/Graphics/SVG/1.1/DTD/svg11.dtd">
<svg version="1.1" id="Layer_1" xmlns="http://www.w3.org/2000/svg" xmlns:xlink="http://www.w3.org/1999/xlink" x="0px" y="0px"
	 width="595.28px" height="600.035px" viewBox="0 0 595.28 600.035" enable-background="new 0 0 595.28 600.035"
	 xml:space="preserve">
<g id="Layer_3">
	<circle fill="#FFFFFF" cx="297.64" cy="297.64" r="297.64"/>
	<path fill="#3B1F15" d="M218.765,259.281l-6.833,3.237l-23.615-3.237l3.956-40.277c0,0-0.36-61.134,7.672-75.998
		c0,0,8.391-37.16,29.608-49.986c0,0,19.179-17.142,64.371-17.142c0,0,49.986-2.397,68.327,15.224s17.621,13.545,28.409,36.321
		c0,0,13.545,43.513,11.987,61.973c0,0,1.918,39.198,0.12,43.154c-1.678,3.956-3.356,40.756-3.356,40.756l-39.557,11.987
		l-80.673-37.999L218.765,259.281z"/>
	<path fill="#D3976F" d="M253.527,350.862c0,0,7.552,22.776,3.956,49.507l33.924,23.135l17.981,2.397
		c0,0,15.583-15.583,16.782-15.943s11.987-16.782,11.987-16.782s-0.12-30.447,2.397-35.602L253.527,350.862z"/>
	<path fill="#E1AC84" d="M204.98,291.886c0,0,19.179,49.147,58.137,70.125c0,0,20.018,11.388,35.122,11.388
		c7.672,0,15.224-3.237,22.416-5.514c13.905-4.315,24.813-13.426,35.242-23.255c7.432-7.072,14.385-14.744,20.378-23.135
		c1.678-2.278,16.183-29.488,15.104-29.608c0,0,13.785,1.798,17.381-12.586c0,0,13.186-43.154,4.195-55.141
		c0,0-9.59-8.99-17.381-4.795l-4.195,34.763l-6.593-1.199l-2.397-65.33l-28.769-35.961l-81.512,51.305l-1.558-21.936l-16.782,12.347
		l-1.199-19.179l-17.621,10.788l-0.839-24.813l-18.34,23.135l-4.795,68.327l-5.994,1.798v-34.163c0,0-20.378-5.394-24.574,11.388
		c-4.195,16.782,5.994,46.15,5.994,46.15S190.595,295.482,204.98,291.886z"/>
	<path fill="#E6F1F2" d="M83.91,508.613c0,0,7.192-46.27,14.984-54.182c0,0,19.779-17.501,41.356-25.892l103.089-33.684
		l13.785-3.596l41.116,22.895l40.996-22.895l37.16,11.388c0,0,88.705,26.492,97.695,34.883c0,0,17.981,7.192,25.173,19.299
		c0,0,13.785,46.27,13.186,51.784C512.449,508.613,314.662,714.312,83.91,508.613z"/>
	<path fill="#E2B74E" d="M282.177,409.599H316.1l-2.158,27.81l-0.959,5.874l22.177,153.435c0,0-43.034,5.035-74.56,0l24.334-153.435
		l-6.593-6.113L282.177,409.599z"/>
	<path fill="#A5853C" d="M284.934,451.674c0,0,14.265-5.634,28.769-0.36l5.994-14.385l2.397-0.599l-3.356-13.186l-8.391-2.877
		l-10.189-2.158l-8.511,0.959l-10.669,19.06l0.959,4.076L284.934,451.674z"/>
	<path fill="#97AAAE" d="M251.49,412.596l4.555-18.82c0,0,20.138,17.022,41.595,24.214c0,0,23.734-6.593,40.516-24.214l5.634,17.621
		c0,0-8.391,26.372-30.927,40.516c0,0-8.99-27.45-14.744-27.211c0,0-7.432,0.36-13.306,27.211
		C284.934,451.914,258.202,431.656,251.49,412.596z"/>
	<path fill="#C5D9DE" d="M251.49,403.965l4.555-18.82c0,0,20.138,17.022,41.595,24.214c0,0,23.734-6.593,40.516-24.214l5.634,17.621
		c0,0-8.391,26.372-30.927,40.516c0,0-8.99-27.45-14.744-27.211c0,0-7.432,0.36-13.306,27.211
		C284.934,443.283,258.202,423.025,251.49,403.965z"/>
	<path fill="#050306" d="M373.518,248.612c-0.839-7.911-4.435-15.583-10.429-21.097c-6.233-5.754-14.265-8.87-22.656-8.87
		c-14.984,0-27.93,9.949-32.006,24.214c-2.517-2.517-6.713-4.195-10.549-4.195s-8.031,1.678-10.549,4.195
		c-4.076-14.265-17.022-24.214-32.006-24.214c-8.391,0-16.542,3.117-22.656,8.87c-5.994,5.634-9.71,13.186-10.429,21.097h-5.274
		v6.473h5.274c0.839,7.911,4.435,15.583,10.429,21.097c6.233,5.754,14.265,8.87,22.656,8.87c18.34,0,33.324-14.864,33.324-33.204
		l0,0l0,0c0-3.596,4.195-7.792,9.35-7.792c5.154,0,9.35,4.195,9.35,7.792l0,0l0,0c0,18.34,14.984,33.204,33.324,33.204
		c8.391,0,16.542-3.117,22.656-8.87c5.994-5.514,9.71-13.186,10.429-21.097h5.274v-6.473H373.518L373.518,248.612z M340.434,279.659
		c-15.343,0-27.81-12.467-27.81-27.81s12.467-27.81,27.81-27.81s27.81,12.467,27.81,27.81S355.778,279.659,340.434,279.659z
		 M255.206,279.659c-15.344,0-27.81-12.467-27.81-27.81s12.467-27.81,27.81-27.81s27.81,12.467,27.81,27.81
		C283.136,267.192,270.669,279.659,255.206,279.659z"/>
</g>
</svg>
