<?xml version="1.0" encoding="utf-8"?>
<!-- Generator: Adobe Illustrator 17.0.0, SVG Export Plug-In . SVG Version: 6.00 Build 0)  -->
<!DOCTYPE svg PUBLIC "-//W3C//DTD SVG 1.1//EN" "http://www.w3.org/Graphics/SVG/1.1/DTD/svg11.dtd">
<svg version="1.1" xmlns="http://www.w3.org/2000/svg" xmlns:xlink="http://www.w3.org/1999/xlink" x="0px" y="0px"
	 width="494.29px" height="494.29px" viewBox="0 0 494.29 494.29" enable-background="new 0 0 494.29 494.29" xml:space="preserve">
<g id="Layer_1">
	<circle fill="#E1E1E1" cx="246" cy="248" r="235"/>
	<path fill="#BDBDBC" d="M294.439,352.574c-1.405-15.511-0.866-26.335-0.866-40.508c7.024-3.685,19.609-27.182,21.736-47.032
		c5.523-0.452,14.231-5.841,16.781-27.115c1.376-11.421-4.089-17.849-7.419-19.869c8.987-27.028,27.653-110.642-34.523-119.283
		c-6.399-11.238-22.785-16.925-44.078-16.925c-85.193,1.568-95.469,64.332-76.793,136.208c-3.32,2.021-8.785,8.448-7.419,19.869
		c2.559,21.274,11.258,26.662,16.781,27.115c2.117,19.84,15.203,43.347,22.246,47.032c0,14.173,0.529,24.998-0.876,40.508
		C187.876,385.192,121.818,388.545,85.871,420c37.583,37.843,102.305,67.078,166.511,64.106
		c86.19-3.989,139.826-50.746,152.402-64.592C369.057,387.771,306.601,385.308,294.439,352.574z"/>
</g>
<g id="Layer_2">
</g>
</svg>
