<?xml version="1.0" encoding="utf-8"?>
<!-- Generator: Adobe Illustrator 17.0.0, SVG Export Plug-In . SVG Version: 6.00 Build 0)  -->
<!DOCTYPE svg PUBLIC "-//W3C//DTD SVG 1.1//EN" "http://www.w3.org/Graphics/SVG/1.1/DTD/svg11.dtd">
<svg version="1.1" id="Layer_1" xmlns="http://www.w3.org/2000/svg" xmlns:xlink="http://www.w3.org/1999/xlink" x="0px" y="0px"
	 width="595.28px" height="595.28px" viewBox="0 0 595.28 595.28" enable-background="new 0 0 595.28 595.28" xml:space="preserve">
<g id="Layer_4">
	<circle fill="#FFFFFF" cx="297.64" cy="297.64" r="297.64"/>
	<g>
		<g>
			<path fill="#D3976F" d="M374.358,324.251c0,0,6.353,19.179,3.356,41.835l28.649,19.539l15.224,2.038
				c0,0,13.186-13.186,14.145-13.545c0.959-0.36,10.069-14.145,10.069-14.145s-0.12-25.772,2.038-30.088L374.358,324.251z"/>
			<path fill="#E6F1F2" d="M232.31,457.548c0,0,6.113-39.078,12.706-45.671c0,0,16.662-14.744,34.882-21.817l87.026-28.409
				l11.627-2.997l34.643,19.419l34.643-19.419l31.406,9.71c27.091,8.99,54.781,17.261,80.913,28.769
				c1.798,0.719,15.344,7.672,14.744,8.99c0,0-21.337,56.699-50.945,86.068c0,0-21.936,26.971-62.693,54.781
				C392.338,594.201,281.577,627.885,232.31,457.548z"/>
			<path fill="#E2B74E" d="M398.691,373.998h28.649l-1.798,27.451l-0.839,5.754l18.46,150.199c0,0-1.558,1.558-3.356,1.798
				c-8.87,1.558-37.16,3.356-59.456-0.719l20.618-151.277l-5.514-5.994L398.691,373.998z"/>
			<path fill="#A5853C" d="M400.969,409.48c0,0,11.987-4.795,24.214-0.36l5.035-12.227l2.038-0.479l-2.877-11.148l-7.072-2.397
				l-8.631-1.798l-7.192,0.839l-8.99,16.183l0.839,3.476L400.969,409.48z"/>
			<path fill="#97AAAE" d="M372.679,376.515l3.836-15.943c0,0,17.022,14.385,35.122,20.378c0,0,20.019-5.514,34.283-20.378
				l4.795,14.864c0,0-7.072,22.296-26.132,34.283c0,0-7.672-23.135-12.467-23.015c0,0-6.233,0.36-11.148,23.015
				C400.969,409.72,378.313,392.578,372.679,376.515z"/>
			<path fill="#C5D9DE" d="M372.679,369.203l3.836-15.943c0,0,17.022,14.385,35.122,20.378c0,0,20.019-5.514,34.283-20.378
				l4.795,14.864c0,0-7.072,22.296-26.132,34.283c0,0-7.672-23.135-12.467-23.015c0,0-6.233,0.36-11.148,23.015
				C400.969,402.407,378.313,385.266,372.679,369.203z"/>
		</g>
		<path fill="#3B1F15" d="M371.481,260.6l-15.583,4.195l-20.378,7.432c-9.829-32.125-24.454-66.049-22.056-100.212
			c1.079-16.302,10.908-33.204,26.012-40.037c4.915-2.278,9.47-1.319,14.624-1.438c-0.719,0,1.798-6.833,1.918-7.072
			c5.155-9.829,14.624-16.183,24.454-20.738c20.738-9.71,50.945-6.233,70.724,4.315c5.754,3.117,11.388,6.953,14.984,12.586
			c2.278,3.596,3.476,7.552,5.274,11.388c0.12,0.24,3.716,0.36,4.076,0.36c3.476,0.479,6.953,1.438,10.309,2.757
			c28.529,11.747,26.971,50.346,21.457,75.159c-2.278,10.189-4.675,20.378-7.072,30.567c-0.36,1.678-2.637,17.381-4.195,17.861
			l-32.125,9.71l-65.57-30.807L371.481,260.6z"/>
		<path fill="#E1AC84" d="M337.437,279.42c0,0,15.463,39.557,46.87,56.459c0,0,16.183,9.11,28.29,9.23
			c6.113,0,12.227-2.637,17.981-4.435c11.148-3.476,20.019-10.788,28.41-18.7c5.994-5.634,11.627-11.867,16.422-18.58
			c1.318-1.798,13.066-23.734,12.107-23.854c0,0,11.148,1.438,14.025-10.189c0,0,10.669-34.763,3.356-44.472
			c0,0-7.672-7.192-14.025-3.836l-3.356,28.05l-5.274-0.959l-1.918-52.623l-23.135-29.009l-65.689,41.356l-1.319-17.741
			l-13.545,9.949l-0.959-15.463l-14.145,8.751l-0.599-19.899l-14.864,18.7l-3.836,55.021l-4.795,1.438v-27.57
			c0,0-16.422-4.315-19.779,9.23c-3.356,13.545,4.795,37.16,4.795,37.16S325.81,282.416,337.437,279.42z"/>
	</g>
	<g>
		<path fill="#444444" d="M46.87,458.028c0,0,3.117-32.725,9.47-41.955c0,0,9.59-20.858,43.034-29.848
			c0,0,33.804-9.949,44.352-10.309h113.638c0,0,28.17,3.596,51.425,12.586c0,0,24.573,11.628,32.845,23.255
			c0,0,15.943,24.454,21.936,101.291c0,0-119.392,149.359-271.149,0.24C77.317,498.424,63.412,481.762,46.87,458.028z"/>
		<path fill="#3C2727" d="M201.264,105.127c0,0,87.386-8.511,107.165,111.121c0,0,15.583,72.762-11.388,105.007
			c0,0-16.422,17.022-49.747,15.224l-102.13,0.12c0,0-35.122,3.836-49.507-31.646c-13.306-32.845-5.394-72.162,2.158-105.606
			c4.315-18.82,11.627-37.28,22.895-53.343c8.151-11.508,18.58-21.697,31.167-28.889
			C167.819,108.124,183.523,106.925,201.264,105.127z"/>
		<path fill="#E3B3A4" d="M156.072,374.717c0,0,20.738-3.476,22.536-40.876h44.712c0,0-0.839,33.084,23.615,42.315l-37.64,59.456
			l-6.113,2.997l-1.798,2.158l-8.031-4.076L156.072,374.717z"/>
		<polygon fill="#B3B2B4" points="193.951,437.41 201.024,441.006 207.856,437.41 204.021,431.296 201.264,440.407 200.904,440.287 
			197.907,431.296 		"/>
		<polygon fill="#C7C5C6" points="154.274,372.08 198.147,431.296 201.264,440.766 203.541,431.057 248.253,372.08 249.332,376.875 
			211.213,445.082 203.901,432.135 201.264,441.845 197.907,432.255 190.595,445.082 152.476,376.275 		"/>
		<path fill="#E8C1B3" d="M127.902,278.94c0,0,15.463,51.664,55.141,68.566c0,0,17.861,9.47,33.804,0
			c0,0,37.28-11.987,55.141-68.566c-0.24,0.719,5.394-0.599,5.634-0.719c5.274-2.877,6.353-9.23,7.552-14.504
			c1.678-7.552,3.716-15.224,3.476-23.015c-0.24-6.953-0.959-13.665-8.511-15.943c-2.517,2.517-4.195,5.754-4.555,9.23l-2.637,0.36
			l0.719-13.545c0,0-29.848-10.309-34.163-55.021c0,0-53.702,52.384-111.72,51.664c-0.719,1.199,0,4.795,0,6.233
			c0,2.158,0,4.315,0,6.473c0,1.438,0,2.877-0.719,4.076c-0.719-0.12-1.798-0.36-2.397-0.839c-1.558-1.079-1.079-1.678-1.438-3.237
			c-0.599-2.397-0.12-5.754-3.716-5.754c-3.236,0-6.353,4.555-6.953,7.432C111.24,239.023,112.319,283.615,127.902,278.94z"/>
		<g>
			<path fill="none" stroke="#3C2727" stroke-miterlimit="10" d="M160.507,373.399c0,0,23.735,34.643,37.4,48.308l2.158,2.997
				l2.997-2.397c0,0,33.564-39.677,37.999-48.907"/>
			<circle fill="#CB655E" cx="200.904" cy="423.505" r="4.435"/>
		</g>
	</g>
	<g>
		<path fill="#2C2C2B" d="M225.358,366.446c0,0-8.751-65.09,27.57-83.55c0,0,19.539-9.829,47.589-9.829
			c0,0,40.397-0.959,57.898,19.419c0,0,16.782,14.744,16.422,48.788v31.167l-10.788,23.135H237.825l-9.59-17.981L225.358,366.446z"
			/>
		<path fill="#1B468A" d="M161.227,562.196c0,0-2.158-30.687,12.467-42.075c0,0,17.981-17.142,64.491-27.93h123.227
			c0,0,45.551,10.189,65.929,28.17c0,0,10.669,7.911,12.467,38.718C439.807,559.199,312.504,637.714,161.227,562.196z"/>
		<path fill="#D39A68" d="M251.13,488.115c0,0,19.419-0.839,25.413-24.094h47.109c0,0,2.637,21.457,24.094,23.734
			c0,0,0.959,35.961-47.349,42.434C300.397,530.07,253.887,525.275,251.13,488.115z"/>
		<path fill="#E3B181" d="M234.947,377.594c0,0-2.038-26.372,13.186-39.557c0,0,26.012,6.353,44.352,27.211
			c0,0,5.994-9.23-2.757-24.813c0,0,26.012,5.154,42.794,25.173c0,0-2.397-24.334-20.018-34.763c0,0,19.179-5.634,50.346,23.375
			c0,0,3.237,18.94,2.757,24.933c0,0,2.757-9.59,9.23-12.826c0,0,8.391-6.833,9.23,4.795c0,0,1.199,21.577-12.347,30.327
			c0,0-14.744,63.172-71.083,67.487c0,0-49.147,2.757-71.923-66.768c0,0-9.949-7.192-12.826-28.409c0,0,0-8.391,4.435-9.23
			C220.203,364.888,227.396,363.21,234.947,377.594z"/>
		<path fill="#CCDBEF" d="M346.308,487.156c0,0,15.224,5.035,15.344,5.154c0.479,0.12-0.12,4.675-0.24,5.035
			c-3.956,22.656-20.978,34.283-41.715,42.315c-9.23,3.596-20.618,4.315-30.447,1.918c-7.073-1.678-14.744-4.315-21.217-7.552
			c-7.552-3.836-14.504-8.87-19.899-15.463c-2.877-3.596-5.155-7.432-6.833-11.747c-0.479-1.319-4.435-14.025-3.117-14.504
			c0,0,15.224-4.915,15.583-5.035c-0.599,0.24,0.36,5.874,0.479,6.233c0.959,5.154,3.236,9.949,6.353,14.145
			c4.076,5.514,9.59,9.71,15.583,12.826c10.908,5.634,22.656,8.87,34.643,5.514c14.984-4.195,29.249-14.145,33.924-29.848
			C344.989,495.308,347.027,487.396,346.308,487.156z"/>
	</g>
</g>
</svg>
