<?xml version="1.0" encoding="utf-8"?>
<!-- Generator: Adobe Illustrator 18.0.0, SVG Export Plug-In . SVG Version: 6.00 Build 0)  -->
<!DOCTYPE svg PUBLIC "-//W3C//DTD SVG 1.1//EN" "http://www.w3.org/Graphics/SVG/1.1/DTD/svg11.dtd">
<svg version="1.1" id="Layer_1" xmlns="http://www.w3.org/2000/svg" xmlns:xlink="http://www.w3.org/1999/xlink" x="0px" y="0px"
	 viewBox="49.3 68.8 496.6 496.6" enable-background="new 49.3 68.8 496.6 496.6" xml:space="preserve">
<g id="Layer_1_1_">
	<circle fill="#70A084" stroke="#FFFFFF" stroke-miterlimit="10" cx="297.6" cy="317.1" r="248.3"/>
	<path fill="#391D13" d="M347.3,143c7.2,5.3,13.3,12,20,20.1c19.5,23.6,36.7,51.5,42.6,81.9c10.9,55.4-33.4,110.5-89,113.2
		c-12.3,0.6-25.3,0.8-37.9,0.6c-8.4-0.1-16.9,0.6-25.2-0.8c-22.7-3.8-42.6-19-56.4-36.9c-6.1-7.9-11.8-16.8-15-26.3
		c-8.7-25.5-3.1-51.7,6.5-75.8c5.9-14.7,13.1-28.9,21.9-42c14.6-21.7,30.3-40.1,57.2-45.8c17.3-3.7,36.2-3.7,53.5,1.3
		C334.3,135,341.2,138.5,347.3,143z"/>
	<path d="M139.9,508.8c0,0,5.7-53,12-62.3c0,0,9.7-21,43.3-30c0,0,28.3-6.3,39-6.7l127.7-0.7c0,0,20.7,0.7,44,9.7
		c0,0,24.7,11.7,33,23.3c0,0,8,7.7,14.7,66.7C453.5,508.8,308.9,635.8,139.9,508.8z"/>
	<path fill="#D39266" d="M261.4,358.4c0,0,8.8,24.4-2.5,39.4l-1.7,39.7l44,60l40.3-61c0,0-4.3-37.2-4-38.5
		c0.3-1.3-15.3-15.8-2.7-44.2L261.4,358.4z"/>
	<path fill="#E29D6D" d="M223.9,301.3c0,0,15.5,52,55.5,69c0,0,18,9.5,34,0c0,0,37.5-12,55.5-69c-0.2,0.7,5.4-0.6,5.7-0.7
		c5.2-2.8,6.4-9.3,7.6-14.6c1.7-7.6,3.7-15.3,3.5-23.1c-0.2-6.9-1-13.7-8.5-16.1c-2.5,2.5-4.2,5.8-4.6,9.3l-2.7,0.3l0.7-13.7
		c0,0-30-10.3-34.3-55.3c0,0-54,52.7-112.3,52c-0.7,1.3,0,4.9,0,6.3c0,2.2,0,4.4,0,6.6c0,1.5,0,2.9-0.7,4.1
		c-0.7-0.2-1.8-0.4-2.4-0.8c-1.5-1.1-1.1-1.6-1.5-3.2c-0.6-2.4-0.1-5.8-3.8-5.8c-3.3,0-6.4,4.6-6.9,7.4
		C207.1,261.2,208.2,306,223.9,301.3z"/>
	<g>
		<path fill="none" stroke="#3D2828" stroke-miterlimit="10" d="M262.6,420.4c0,0,20.9,30.5,33,42.5l1.9,2.6l2.6-2.1
			c0,0,29.5-34.9,33.4-43.1"/>
		<circle fill="#D3950B" cx="298.2" cy="464.5" r="3.9"/>
	</g>
	<polygon fill="#EAEAEA" points="234.2,409.8 259.5,396.1 265.9,429.1 298.1,482.5 331.2,429.5 336.9,396.1 361.9,409.1 
		355.2,451.8 338.5,448.5 350.5,463.8 298.1,529.1 246.5,462.6 257.9,448.8 242.5,452.5 	"/>
	<polygon fill="#D3950B" points="372.6,297.9 375.6,304.1 372.6,309.5 370.1,304.1 	"/>
	<polygon fill="#D3950B" points="220.1,298.9 223.1,305.1 220.1,310.5 217.6,305.1 	"/>
</g>
<g id="Layer_2" display="none">
	<circle display="inline" fill="#A3D5E0" cx="-372.6" cy="-275.7" r="248.3"/>
	<path display="inline" fill="#633232" d="M-291.9-405.1c0.1,8.1,0.9,16.3,2.1,24.2c1,6.3,2.3,12.7,4.6,18.7
		c4.3,11.4,13.1,21.3,17.9,32.8c13.2,31.5,9.3,65.8,7.2,99.1c-1.1,17.6-2.3,35.5-8.1,52.3c-3.1,9-10.2,6.8-18.8,7.4
		c-9.1,0.6-18.2,1.3-27.3,1.9c-18.6,1.3-37.2,2.6-55.8,3.9c-13.5,1-27.1,1.9-40.6,2.9c-7.9,0.6-15.8,1.9-23.7,0.6
		c-8.5-1.4-34.3-1.8-37.8-12.5c-7.1-24.5-11.3-49.8-12.3-75.2c-1-23.2-2.5-49.7,4.6-72.1c5.5-17.4,17-32,26.4-47.4
		c0,0,6.7-36.1,4.7-36.8c-2-0.7,36.6,4.2,36.6,4.2l56,8.9L-291.9-405.1z"/>
	<path display="inline" fill="#D69060" d="M-409.7-234.8c0,0,9.9,28.2-0.6,45.1v20.9l7.5,12l21.5,2.8l23.8-1.3l15.8,1.3l2.3-16.8
		l9-10.3l-5.2-7.7c0,0-8.7-22.8-1.3-45L-409.7-234.8z"/>
	<path display="inline" fill="#E29D6D" d="M-445.4-291.3c0,0,15.5,52,55.5,69c0,0,18,9.5,34,0c0,0,37.5-12,55.5-69
		c-0.2,0.7,5.4-0.6,5.7-0.7c5.2-2.8,6.4-9.3,7.6-14.6c1.7-7.6,3.7-15.3,3.5-23.1c-0.2-6.9-1-13.7-8.5-16.1c-2.5,2.5-4.2,5.8-4.6,9.3
		l-2.7,0.3l0.7-13.7c0,0-30-10.3-34.3-55.3c0,0-54,52.7-112.3,52c-0.7,1.3,0,4.9,0,6.3c0,2.2,0,4.4,0,6.6c0,1.5,0,2.9-0.7,4.1
		c-0.7-0.2-1.8-0.4-2.4-0.8c-1.5-1.1-1.1-1.6-1.5-3.2c-0.6-2.4-0.1-5.8-3.8-5.8c-3.3,0-6.4,4.6-6.9,7.4
		C-462.2-331.4-461.1-286.6-445.4-291.3z"/>
	<path display="inline" fill="#337280" d="M-529.1-81.3c0,0,7.9-58.7,12-64.9c0,0,10.2-23.5,56.2-33.6l51-9.9
		c0,0,2.8,29.2,38.9,29.2c0,0,28.9,1.2,35.9-29.2c0,0,56.1,8.9,71.2,17.3c0,0,25.3,7.3,36.1,26.1c0,0,5.7,17.5,9.5,41.9l2.8,20.5
		c0,0-27.7,25.4-75.8,42C-350.9-21.2-440.5-13.8-529.1-81.3z"/>
	<path display="inline" fill="#161616" d="M-452.9-371.9c0,0,90-20.1,164.9,0l2.3-73.6l-86.7,26l-82.3-26L-452.9-371.9z"/>
	<path display="inline" fill="#161616" d="M-433.2-415.6l63,17.1c34.3-8.6,68.5-17.1,102.8-25.7c13-3.2,28.6-5.2,40.9-9.8
		c1.8-0.7,3.3-2.3,2.9-4c-0.2-1.2-1-2.3-2.2-2.8c-14.7-7.1-27.5-9.3-41.3-12.7c-21.4-5.3-43-10.2-64.5-15.1
		c-9.9-2.3-20.3-3.9-30-6.8c-9.8-2.9-18.8,0.9-28.1,3.4c-8.6,2.3-17.3,4.4-26,6.6c-21.3,5.3-42.7,10.4-64.1,15.5
		c-10.5,2.5-21,5-31.5,7.4c0,0-9.5,5.2,2.5,9.2l40,10.9l-8,13.6c0,0-17.5,4.9-5.5,18.9c0,0-2.5,34-44.5,60.7c0,0,4.9,10.2,24.5,14.4
		c0,0,19.7,3.8,29.3-20.4c0,0,9.7-17.5,7.7-54.7c0,0,10.5-4.4,4-15.4S-425.2-425.2-433.2-415.6z"/>
</g>
<g id="Layer_3" display="none">
	<circle display="inline" fill="#E6312F" cx="297.6" cy="-267.7" r="248.3"/>
	<path display="inline" fill="#3B1F15" d="M231.8-299.7l-5.7,2.7l-19.7-2.7l3.3-33.6c0,0-0.3-51,6.4-63.4c0,0,7-31,24.7-41.7
		c0,0,16-14.3,53.7-14.3c0,0,41.7-2,57,12.7c15.3,14.7,14.7,11.3,23.7,30.3c0,0,11.3,36.3,10,51.7c0,0,1.6,32.7,0.1,36
		c-1.4,3.3-2.8,34-2.8,34l-33,10l-67.3-31.7L231.8-299.7z"/>
	<path display="inline" fill="#DB9B71" d="M260.8-223.3c0,0,6.3,19,3.3,41.3l28.3,19.3l15,2c0,0,13-13,14-13.3s10-14,10-14
		s-0.1-25.4,2-29.7L260.8-223.3z"/>
	<path display="inline" fill="#F5B483" d="M220.3-272.5c0,0,16,41,48.5,58.5c0,0,16.7,9.5,29.3,9.5c6.4,0,12.7-2.7,18.7-4.6
		c11.6-3.6,20.7-11.2,29.4-19.4c6.2-5.9,12-12.3,17-19.3c1.4-1.9,13.5-24.6,12.6-24.7c0,0,11.5,1.5,14.5-10.5c0,0,11-36,3.5-46
		c0,0-8-7.5-14.5-4l-3.5,29l-5.5-1l-2-54.5l-24-30l-68,42.8L275-365l-14,10.3l-1-16l-14.7,9l-0.7-20.7l-15.3,19.3l-4,57l-5,1.5
		v-28.5c0,0-17-4.5-20.5,9.5c-3.5,14,5,38.5,5,38.5S208.3-269.5,220.3-272.5z"/>
	<path display="inline" fill="#E8F2F4" d="M119.3-91.7c0,0,6-38.6,12.5-45.2c0,0,16.5-14.6,34.5-21.6l86-28.1l11.5-3l34.3,19.1
		l34.2-19.1l31,9.5c0,0,74,22.1,81.5,29.1c0,0,15,6,21,16.1c0,0,11.5,38.6,11,43.2C476.8-91.7,311.8,79.9,119.3-91.7z"/>
	<path display="inline" fill="#EBBD4B" d="M284.7-174.3H313l-1.8,23.2l-0.8,4.9l18.5,128c0,0-35.9,4.2-62.2,0l20.3-128l-5.5-5.1
		L284.7-174.3z"/>
	<path display="inline" fill="#AA883B" d="M287-139.2c0,0,11.9-4.7,24-0.3l5-12l2-0.5l-2.8-11l-7-2.4l-8.5-1.8l-7.1,0.8l-8.9,15.9
		l0.8,3.4L287-139.2z"/>
	<path display="inline" fill="#9AAEB2" d="M259.1-171.8l3.8-15.7c0,0,16.8,14.2,34.7,20.2c0,0,19.8-5.5,33.8-20.2l4.7,14.7
		c0,0-7,22-25.8,33.8c0,0-7.5-22.9-12.3-22.7c0,0-6.2,0.3-11.1,22.7C287-139,264.7-155.9,259.1-171.8z"/>
	<path display="inline" fill="#C9DEE3" d="M259.1-179l3.8-15.7c0,0,16.8,14.2,34.7,20.2c0,0,19.8-5.5,33.8-20.2l4.7,14.7
		c0,0-7,22-25.8,33.8c0,0-7.5-22.9-12.3-22.7c0,0-6.2,0.3-11.1,22.7C287-146.2,264.7-163.1,259.1-179z"/>
	<path display="inline" fill="#010202" d="M360.9-308.6c-0.7-6.6-3.7-13-8.7-17.6c-5.2-4.8-11.9-7.4-18.9-7.4
		c-12.5,0-23.3,8.3-26.7,20.2c-2.1-2.1-5.6-3.5-8.8-3.5c-3.2,0-6.7,1.4-8.8,3.5c-3.4-11.9-14.2-20.2-26.7-20.2
		c-7,0-13.8,2.6-18.9,7.4c-5,4.7-8.1,11-8.7,17.6h-4.4v5.4h4.4c0.7,6.6,3.7,13,8.7,17.6c5.2,4.8,11.9,7.4,18.9,7.4
		c15.3,0,27.8-12.4,27.8-27.7l0,0l0,0c0-3,3.5-6.5,7.8-6.5s7.8,3.5,7.8,6.5l0,0l0,0c0,15.3,12.5,27.7,27.8,27.7
		c7,0,13.8-2.6,18.9-7.4c5-4.6,8.1-11,8.7-17.6h4.4v-5.4H360.9L360.9-308.6z M333.3-282.7c-12.8,0-23.2-10.4-23.2-23.2
		c0-12.8,10.4-23.2,23.2-23.2c12.8,0,23.2,10.4,23.2,23.2S346.1-282.7,333.3-282.7z M262.2-282.7c-12.8,0-23.2-10.4-23.2-23.2
		c0-12.8,10.4-23.2,23.2-23.2c12.8,0,23.2,10.4,23.2,23.2C285.5-293.1,275.1-282.7,262.2-282.7z"/>
</g>
<g id="Layer_4" display="none">
	<circle display="inline" fill="#FAEF85" cx="-1017.6" cy="412.5" r="248.3"/>
	<g display="inline">
		<g>
			<path fill="#DB9B71" d="M-953.6,434.7c0,0,5.3,16,2.8,34.9l23.9,16.3l12.7,1.7c0,0,11-11,11.8-11.3c0.8-0.3,8.4-11.8,8.4-11.8
				s-0.1-21.5,1.7-25.1L-953.6,434.7z"/>
			<path fill="#E8F2F4" d="M-1072.1,545.9c0,0,5.1-32.6,10.6-38.1c0,0,13.9-12.3,29.1-18.2l72.6-23.7l9.7-2.5l28.9,16.2l28.9-16.2
				l26.2,8.1c22.6,7.5,45.7,14.4,67.5,24c1.5,0.6,12.8,6.4,12.3,7.5c0,0-17.8,47.3-42.5,71.8c0,0-18.3,22.5-52.3,45.7
				C-938.6,659.9-1031,688-1072.1,545.9z"/>
			<path fill="#EBBD4B" d="M-933.3,476.2h23.9l-1.5,22.9l-0.7,4.8l15.4,125.3c0,0-1.3,1.3-2.8,1.5c-7.4,1.3-31,2.8-49.6-0.6
				l17.2-126.2l-4.6-5L-933.3,476.2z"/>
			<path fill="#AA883B" d="M-931.4,505.8c0,0,10-4,20.2-0.3l4.2-10.2l1.7-0.4l-2.4-9.3l-5.9-2l-7.2-1.5l-6,0.7l-7.5,13.5l0.7,2.9
				L-931.4,505.8z"/>
			<path fill="#9AAEB2" d="M-955,478.3l3.2-13.3c0,0,14.2,12,29.3,17c0,0,16.7-4.6,28.6-17l4,12.4c0,0-5.9,18.6-21.8,28.6
				c0,0-6.4-19.3-10.4-19.2c0,0-5.2,0.3-9.3,19.2C-931.4,506-950.3,491.7-955,478.3z"/>
			<path fill="#C9DEE3" d="M-955,472.2l3.2-13.3c0,0,14.2,12,29.3,17c0,0,16.7-4.6,28.6-17l4,12.4c0,0-5.9,18.6-21.8,28.6
				c0,0-6.4-19.3-10.4-19.2c0,0-5.2,0.3-9.3,19.2C-931.4,499.9-950.3,485.6-955,472.2z"/>
		</g>
		<path fill="#3B1F15" d="M-956,381.6l-13,3.5l-17,6.2c-8.2-26.8-20.4-55.1-18.4-83.6c0.9-13.6,9.1-27.7,21.7-33.4
			c4.1-1.9,7.9-1.1,12.2-1.2c-0.6,0,1.5-5.7,1.6-5.9c4.3-8.2,12.2-13.5,20.4-17.3c17.3-8.1,42.5-5.2,59,3.6
			c4.8,2.6,9.5,5.8,12.5,10.5c1.9,3,2.9,6.3,4.4,9.5c0.1,0.2,3.1,0.3,3.4,0.3c2.9,0.4,5.8,1.2,8.6,2.3c23.8,9.8,22.5,42,17.9,62.7
			c-1.9,8.5-3.9,17-5.9,25.5c-0.3,1.4-2.2,14.5-3.5,14.9l-26.8,8.1l-54.7-25.7L-956,381.6z"/>
		<path fill="#F5B483" d="M-984.4,397.3c0,0,12.9,33,39.1,47.1c0,0,13.5,7.6,23.6,7.7c5.1,0,10.2-2.2,15-3.7
			c9.3-2.9,16.7-9,23.7-15.6c5-4.7,9.7-9.9,13.7-15.5c1.1-1.5,10.9-19.8,10.1-19.9c0,0,9.3,1.2,11.7-8.5c0,0,8.9-29,2.8-37.1
			c0,0-6.4-6-11.7-3.2l-2.8,23.4l-4.4-0.8l-1.6-43.9l-19.3-24.2l-54.8,34.5l-1.1-14.8l-11.3,8.3l-0.8-12.9l-11.8,7.3l-0.5-16.6
			l-12.4,15.6l-3.2,45.9l-4,1.2v-23c0,0-13.7-3.6-16.5,7.7c-2.8,11.3,4,31,4,31S-994.1,399.8-984.4,397.3z"/>
	</g>
	<g display="inline">
		<path fill="#444444" d="M-1226.8,546.3c0,0,2.6-27.3,7.9-35c0,0,8-17.4,35.9-24.9c0,0,28.2-8.3,37-8.6h94.8c0,0,23.5,3,42.9,10.5
			c0,0,20.5,9.7,27.4,19.4c0,0,13.3,20.4,18.3,84.5c0,0-99.6,124.6-226.2,0.2C-1201.4,580-1213,566.1-1226.8,546.3z"/>
		<path fill="#3D2828" d="M-1098,251.9c0,0,72.9-7.1,89.4,92.7c0,0,13,60.7-9.5,87.6c0,0-13.7,14.2-41.5,12.7l-85.2,0.1
			c0,0-29.3,3.2-41.3-26.4c-11.1-27.4-4.5-60.2,1.8-88.1c3.6-15.7,9.7-31.1,19.1-44.5c6.8-9.6,15.5-18.1,26-24.1
			C-1125.9,254.4-1112.8,253.4-1098,251.9z"/>
		<path fill="#F2B9A7" d="M-1135.7,476.8c0,0,17.3-2.9,18.8-34.1h37.3c0,0-0.7,27.6,19.7,35.3l-31.4,49.6l-5.1,2.5l-1.5,1.8
			l-6.7-3.4L-1135.7,476.8z"/>
		<polygon fill="#B3B2B4" points="-1104.1,529.1 -1098.2,532.1 -1092.5,529.1 -1095.7,524 -1098,531.6 -1098.3,531.5 -1100.8,524 		
			"/>
		<polygon fill="#C7C5C7" points="-1137.2,474.6 -1100.6,524 -1098,531.9 -1096.1,523.8 -1058.8,474.6 -1057.9,478.6 -1089.7,535.5 
			-1095.8,524.7 -1098,532.8 -1100.8,524.8 -1106.9,535.5 -1138.7,478.1 		"/>
		<path fill="#F9C8B5" d="M-1159.2,396.9c0,0,12.9,43.1,46,57.2c0,0,14.9,7.9,28.2,0c0,0,31.1-10,46-57.2c-0.2,0.6,4.5-0.5,4.7-0.6
			c4.4-2.4,5.3-7.7,6.3-12.1c1.4-6.3,3.1-12.7,2.9-19.2c-0.2-5.8-0.8-11.4-7.1-13.3c-2.1,2.1-3.5,4.8-3.8,7.7l-2.2,0.3l0.6-11.3
			c0,0-24.9-8.6-28.5-45.9c0,0-44.8,43.7-93.2,43.1c-0.6,1,0,4,0,5.2c0,1.8,0,3.6,0,5.4c0,1.2,0,2.4-0.6,3.4c-0.6-0.1-1.5-0.3-2-0.7
			c-1.3-0.9-0.9-1.4-1.2-2.7c-0.5-2-0.1-4.8-3.1-4.8c-2.7,0-5.3,3.8-5.8,6.2C-1173.1,363.6-1172.2,400.8-1159.2,396.9z"/>
		<g>
			<path fill="none" stroke="#3D2828" stroke-miterlimit="10" d="M-1132,475.7c0,0,19.8,28.9,31.2,40.3l1.8,2.5l2.5-2
				c0,0,28-33.1,31.7-40.8"/>
			<circle fill="#DA6760" cx="-1098.3" cy="517.5" r="3.7"/>
		</g>
	</g>
	<g display="inline">
		<path fill="#2C2C2C" d="M-1077.9,469.9c0,0-7.3-54.3,23-69.7c0,0,16.3-8.2,39.7-8.2c0,0,33.7-0.8,48.3,16.2c0,0,14,12.3,13.7,40.7
			v26l-9,19.3h-105.3l-8-15L-1077.9,469.9z"/>
		<path fill="#194994" d="M-1131.4,633.2c0,0-1.8-25.6,10.4-35.1c0,0,15-14.3,53.8-23.3h102.8c0,0,38,8.5,55,23.5
			c0,0,8.9,6.6,10.4,32.3C-899,630.7-1005.2,696.2-1131.4,633.2z"/>
		<path fill="#DB9E69" d="M-1056.4,571.4c0,0,16.2-0.7,21.2-20.1h39.3c0,0,2.2,17.9,20.1,19.8c0,0,0.8,30-39.5,35.4
			C-1015.3,606.4-1054.1,602.4-1056.4,571.4z"/>
		<path fill="#F9BA80" d="M-1069.9,479.2c0,0-1.7-22,11-33c0,0,21.7,5.3,37,22.7c0,0,5-7.7-2.3-20.7c0,0,21.7,4.3,35.7,21
			c0,0-2-20.3-16.7-29c0,0,16-4.7,42,19.5c0,0,2.7,15.8,2.3,20.8c0,0,2.3-8,7.7-10.7c0,0,7-5.7,7.7,4c0,0,1,18-10.3,25.3
			c0,0-12.3,52.7-59.3,56.3c0,0-41,2.3-60-55.7c0,0-8.3-6-10.7-23.7c0,0,0-7,3.7-7.7C-1082.2,468.6-1076.2,467.2-1069.9,479.2z"/>
		<path fill="#CFDFF4" d="M-977,570.6c0,0,12.7,4.2,12.8,4.3c0.4,0.1-0.1,3.9-0.2,4.2c-3.3,18.9-17.5,28.6-34.8,35.3
			c-7.7,3-17.2,3.6-25.4,1.6c-5.9-1.4-12.3-3.6-17.7-6.3c-6.3-3.2-12.1-7.4-16.6-12.9c-2.4-3-4.3-6.2-5.7-9.8
			c-0.4-1.1-3.7-11.7-2.6-12.1c0,0,12.7-4.1,13-4.2c-0.5,0.2,0.3,4.9,0.4,5.2c0.8,4.3,2.7,8.3,5.3,11.8c3.4,4.6,8,8.1,13,10.7
			c9.1,4.7,18.9,7.4,28.9,4.6c12.5-3.5,24.4-11.8,28.3-24.9C-978.1,577.4-976.4,570.8-977,570.6z"/>
	</g>
</g>
</svg>
