<?xml version="1.0" encoding="utf-8"?>
<!-- Generator: Adobe Illustrator 17.0.0, SVG Export Plug-In . SVG Version: 6.00 Build 0)  -->
<!DOCTYPE svg PUBLIC "-//W3C//DTD SVG 1.1//EN" "http://www.w3.org/Graphics/SVG/1.1/DTD/svg11.dtd">
<svg version="1.1" id="Layer_2" xmlns="http://www.w3.org/2000/svg" xmlns:xlink="http://www.w3.org/1999/xlink" x="0px" y="0px"
	 width="1377.278px" height="1788.019px" viewBox="0 0 1377.278 1788.019" enable-background="new 0 0 1377.278 1788.019"
	 xml:space="preserve">
<rect x="0" display="none" fill="none" width="909.185" height="944.906"/>
<polygon fill="#D48230" points="88.386,1009.471 665.111,435.673 744.155,435.673 1317.953,1009.471 1317.953,1094.37 
	744.155,1668.168 662.184,1668.168 88.386,1091.442 "/>
<g>
	<g>
		<polyline fill="none" stroke="#FFFFFF" stroke-width="4" stroke-miterlimit="10" points="119.017,1019.578 119.017,1012.078 
			124.334,1006.789 		"/>
		<polyline fill="none" stroke="#FFFFFF" stroke-width="4" stroke-miterlimit="10" stroke-dasharray="15.1476,15.1476" points="
			135.072,996.105 667.008,466.87 727.039,466.87 		"/>
		<polyline fill="none" stroke="#FFFFFF" stroke-width="4" stroke-miterlimit="10" points="734.613,466.87 742.113,466.87 
			747.416,472.173 		"/>
		<polyline fill="none" stroke="#FFFFFF" stroke-width="4" stroke-miterlimit="10" stroke-dasharray="15.2129,15.2129" points="
			758.173,482.93 1287.322,1012.078 1287.322,1077.641 		"/>
		<polyline fill="none" stroke="#FFFFFF" stroke-width="4" stroke-miterlimit="10" points="1287.322,1085.247 1287.322,1092.747 
			1282.018,1098.05 		"/>
		<polyline fill="none" stroke="#FFFFFF" stroke-width="4" stroke-miterlimit="10" stroke-dasharray="15.1623,15.1623" points="
			1271.297,1108.772 742.113,1637.955 679.307,1637.955 		"/>
		<polyline fill="none" stroke="#FFFFFF" stroke-width="4" stroke-miterlimit="10" points="671.726,1637.955 664.226,1637.955 
			658.936,1632.639 		"/>
		<polyline fill="none" stroke="#FFFFFF" stroke-width="4" stroke-miterlimit="10" stroke-dasharray="15.1981,15.1981" points="
			648.217,1621.865 119.017,1089.965 119.017,1027.177 		"/>
	</g>
</g>
<g>
	<g id="Stand_1_">
		<g>
			<rect x="646.736" y="723.076" fill="#B3B3B3" width="112.87" height="28.218"/>
		</g>
	</g>
	<g id="Leg">
		<g>
			<path fill="#CCCCCC" d="M618.518,765.402c0,7.792,6.317,14.109,14.109,14.109s14.109-6.317,14.109-14.109v-176.36h-28.218
				C618.518,589.042,618.518,765.402,618.518,765.402z M759.606,589.042v176.36c0,7.792,6.314,14.109,14.109,14.109
				c7.792,0,14.109-6.317,14.109-14.109v-176.36H759.606z"/>
		</g>
	</g>
	<g id="Bar">
		<g>
			<path fill="#E7E6E5" d="M803.499,624.311H602.84c-6.927,0-12.543,5.679-12.543,12.687v31.001c0,7.005,5.615,12.687,12.543,12.687
				h200.662c6.924,0,12.539-5.679,12.539-12.687v-31.001C816.038,629.989,810.423,624.311,803.499,624.311z"/>
		</g>
	</g>
	<g id="Stripes_1_">
		<g>
			<path fill="#D37E42" d="M625.573,624.314l-35.272,35.272v8.448c0.018,6.987,5.622,12.652,12.539,12.652h8.691l56.368-56.372
				H625.573z M803.534,624.314h-8.656l-56.368,56.368h42.326l35.201-35.201v-8.483C816.038,630,810.44,624.335,803.534,624.314z
				 M710.226,624.314l-56.435,56.435h42.326l56.435-56.435H710.226z"/>
		</g>
	</g>
	<g id="Lights">
		<g>
			<path fill="#EAC16B" d="M632.627,567.879c-11.686,0-21.163,9.474-21.163,21.163c0,11.686,9.478,21.163,21.163,21.163
				s21.163-9.478,21.163-21.163C653.79,577.353,644.313,567.879,632.627,567.879z M773.715,567.879
				c-11.686,0-21.163,9.474-21.163,21.163c0,11.686,9.478,21.163,21.163,21.163s21.163-9.478,21.163-21.163
				C794.878,577.353,785.401,567.879,773.715,567.879z"/>
		</g>
	</g>
</g>
<polygon fill="#FFFFFF" points="151.052,1083.044 132.711,1051.276 151.052,1019.509 187.734,1019.509 206.075,1051.276 
	187.734,1083.044 "/>
<polygon fill="#FFFFFF" points="1218.433,1084.18 1200.092,1052.413 1218.433,1020.645 1255.115,1020.645 1273.456,1052.413 
	1255.115,1084.18 "/>
<text transform="matrix(1 0 0 1 512.0156 958.9629)" fill="#3C312F" font-family="'Haettenschweiler'" font-size="165.1133">SITE EM</text>
<g>
	<text transform="matrix(1 0 0 1 306.4763 1139.0645)" fill="#3C312F" font-family="'Haettenschweiler'" font-size="192.6321">MANUTENÇÃO</text>
</g>
<g>
	<circle fill="#FFFFFF" cx="645.107" cy="1545.072" r="12.727"/>
	<circle fill="#FFFFFF" cx="705.133" cy="1545.072" r="12.727"/>
	<circle fill="#FFFFFF" cx="765.159" cy="1545.072" r="12.727"/>
</g>
<g>
	<text transform="matrix(1 0 0 1 574.3269 1350.5547)" fill="#FFFFFF" font-family="'AaarghNormal'" font-size="55.0377">Em breve</text>
</g>
<g>
	<text transform="matrix(1 0 0 1 568.2722 1424.0625)" fill="#FFFFFF" font-family="'AaarghNormal'" font-size="55.0377">novidades</text>
</g>
<g>
	
		<text transform="matrix(1 0 0 1 576.5 1269.7646)" fill="#FFFFFF" stroke="#FFFFFF" stroke-miterlimit="10" font-family="'AaarghNormal'" font-size="55.0377">AGUARDE</text>
</g>
<image overflow="visible" width="160" height="150" xlink:href="logo_prefeitura_cajazeiras.png"  transform="matrix(1.2715 0 0 1.2715 601.4498 30.339)">
</image>
<image overflow="visible" width="720" height="180" xlink:href="logo-redenet-min3.png"  transform="matrix(0.8477 0 0 0.8477 398.0105 251.202)">
</image>
</svg>
