<?xml version="1.0" encoding="utf-8"?>
<!-- Generator: Adobe Illustrator 17.0.0, SVG Export Plug-In . SVG Version: 6.00 Build 0)  -->
<!DOCTYPE svg PUBLIC "-//W3C//DTD SVG 1.1//EN" "http://www.w3.org/Graphics/SVG/1.1/DTD/svg11.dtd">
<svg version="1.1" id="Layer_1" xmlns="http://www.w3.org/2000/svg" xmlns:xlink="http://www.w3.org/1999/xlink" x="0px" y="0px"
	 width="250.583px" height="250.391px" viewBox="0 0 250.583 250.391" enable-background="new 0 0 250.583 250.391"
	 xml:space="preserve">
<image display="none" overflow="visible" enable-background="new    " width="500" height="290" xlink:href="404-page-design-1.jpg"  transform="matrix(1 0 0 1 -201.5 -29.25)">
</image>
<circle fill="#F9F9F9" cx="125.292" cy="125.292" r="125.292"/>
<path fill="#5EA467" d="M214.295,125.399c0,48.977-39.704,88.681-88.681,88.681s-88.681-39.704-88.681-88.681
	c0-31.236,17.462-56.838,40.555-74.499c3.608-2.759,7.178,12.23,10.12,12.014c11.266-0.827,18.571-3.006,32.638-3.006
	c9.183,0,23.409-21.794,31.739-19.203C188.084,51.933,214.295,85.605,214.295,125.399z"/>
<path fill="#F9F9F9" d="M58.405,65.92c0,0,29.203,25.767,72.147,24.908c0,0-17.607-10.307-18.466-30.061
	c0,0,21.043,28.773,75.583,24.479c0,0-15.46-17.178-14.172-29.632c0,0,1.718-3.006,7.301,0l1.718-3.865
	c0,0-9.495-16.628-26.626-16.749c-13.212-0.093-32.181,16.087-47.3,17.269c-11.273,0.882-25.462-7.405-34.295-5.245
	C65.309,49.222,61.747,61.893,58.405,65.92z"/>
<polygon fill="#F9F9F9" points="51.104,139.356 62.7,126.043 51.104,112.73 60.552,101.994 76.871,115.307 87.608,101.994 
	101.779,111.442 86.749,125.614 101.779,139.356 91.043,147.086 76.442,135.062 61.841,147.086 "/>
<polygon fill="#F9F9F9" points="148.16,139.356 159.755,126.043 148.16,112.73 157.608,101.994 173.927,115.307 184.663,101.994 
	198.835,111.442 183.804,125.614 198.835,139.356 188.099,147.086 173.497,135.062 158.896,147.086 "/>
<path fill="#F9F9F9" d="M101.779,185.737c0,0,25.337-18.466,46.38,0C148.16,185.737,127.546,135.062,101.779,185.737z"/>
</svg>
