<?xml version="1.0" encoding="utf-8"?>
<!-- Generator: Adobe Illustrator 17.0.0, SVG Export Plug-In . SVG Version: 6.00 Build 0)  -->
<!DOCTYPE svg PUBLIC "-//W3C//DTD SVG 1.1//EN" "http://www.w3.org/Graphics/SVG/1.1/DTD/svg11.dtd">
<svg version="1.1" id="Layer_1" xmlns="http://www.w3.org/2000/svg" xmlns:xlink="http://www.w3.org/1999/xlink" x="0px" y="0px"
	 width="201.429px" height="204px" viewBox="0 0 201.429 204" enable-background="new 0 0 201.429 204" xml:space="preserve">
<ellipse fill="#FFFFFF" cx="100.877" cy="141.56" rx="40.455" ry="38.398"/>
<path fill="#F3DCAB" d="M100.668,132.182l15.322-14.817c0,0-5.893-5.837-8.222-12.797l-2.329-13.695h-9.205
	c0,0-1.572,22.226-9.878,25.818l1.572,2.694L100.668,132.182z"/>
<path fill="#191919" d="M50.661,117.903c0,0-5.388,28.496,19.532,51.096h6.96c0,0-18.185-23.583,2.47-47.657
	C79.621,121.343,54.926,122.08,50.661,117.903z"/>
<path fill="#191919" d="M150.746,117.903c0,0,5.388,28.496-19.532,51.096h-6.96c0,0,18.185-23.583-2.469-47.657
	C121.785,121.343,146.48,122.08,150.746,117.903z"/>
<path fill="#E7E5E3" d="M40.222,46.142c0,0,9.261,9.261,25.761,6.398l69.034,0.549c0,0,18.353,2.145,25.425-6.947
	c0,0,4.546,10.608-3.368,22.731c0,0-15.659-8.25-23.404-5.556l-21.384,9.934l-9.429-3.536l-9.261,2.189l-6.062,1.347l-11.45-9.261
	l-11.113-2.021l-15.154,5.22l-5.229,2.037C44.59,69.226,37.359,57.76,40.222,46.142z"/>
<g>
	<circle fill="#FFFFFF" stroke="#191919" stroke-width="5" stroke-miterlimit="10" cx="135.297" cy="93.006" r="30.308"/>
	<circle fill="#5C9464" cx="135.297" cy="92.669" r="17.511"/>
	<circle fill="#444444" cx="135.073" cy="92.782" r="7.97"/>
	<circle fill="#FFFFFF" cx="130.022" cy="87.618" r="3.704"/>
</g>
<g>
	<circle fill="#FFFFFF" stroke="#191919" stroke-width="5" stroke-miterlimit="10" cx="66.272" cy="92.894" r="30.308"/>
	<circle fill="#5C9464" cx="66.488" cy="92.669" r="17.511"/>
	<circle fill="#444444" cx="66.151" cy="92.669" r="7.97"/>
	<circle fill="#FFFFFF" cx="60.988" cy="87.618" r="3.704"/>
</g>
<g>
	<rect x="27.986" y="168.214" fill="#7AA780" width="146.038" height="15.266"/>
	<rect x="27.986" y="173.714" fill="#6C9E72" width="146.038" height="9.766"/>
	<rect x="27.986" y="178.597" fill="#5C9464" width="146.038" height="4.883"/>
	<path fill="#282828" d="M178.065,168.102c0,0,8.812-0.786,8.812,7.97c0,0,0.73,7.296-8.812,7.296V168.102z"/>
	<path fill="#191919" d="M177.84,178.429c0,0,6.907,0.112,8.703-5.051c0,0,3.153,9.99-8.703,9.99V178.429z"/>
	<rect x="173.463" y="167.877" fill="#EFEEEE" width="4.827" height="15.491"/>
	<polygon fill="#EFEEEE" points="18.249,173.939 28.099,168.214 28.099,183.368 18.249,177.811 	"/>
	<polygon fill="#CECCCB" points="18.333,176.548 28.099,178.316 28.099,183.368 18.333,177.811 	"/>
	<polygon fill="#191919" points="15.134,175.933 19.343,173.265 19.343,178.429 	"/>
</g>
<g>
	<g>
		<g>
			<path fill="#191919" d="M82.073,181.179c0-4.415,0-8.83,0-13.246c0-2.902-4.5-2.902-4.5,0c0,4.415,0,8.83,0,13.246
				C77.573,184.081,82.073,184.081,82.073,181.179L82.073,181.179z"/>
		</g>
	</g>
	<g>
		<g>
			<path fill="#191919" d="M88.224,181.179c0-4.415,0-8.83,0-13.246c0-2.902-4.5-2.902-4.5,0c0,4.415,0,8.83,0,13.246
				C83.724,184.081,88.224,184.081,88.224,181.179L88.224,181.179z"/>
		</g>
	</g>
	<g>
		<g>
			<path fill="#191919" d="M75.922,181.179c0-4.415,0-8.83,0-13.246c0-2.902-4.5-2.902-4.5,0c0,4.415,0,8.83,0,13.246
				C71.422,184.081,75.922,184.081,75.922,181.179L75.922,181.179z"/>
		</g>
	</g>
</g>
<g>
	<g>
		<g>
			<path fill="#191919" d="M123.516,181.235c0-4.415,0-8.83,0-13.246c0-2.902-4.5-2.902-4.5,0c0,4.415,0,8.83,0,13.246
				C119.016,184.137,123.516,184.137,123.516,181.235L123.516,181.235z"/>
		</g>
	</g>
	<g>
		<g>
			<path fill="#191919" d="M129.667,181.235c0-4.415,0-8.83,0-13.246c0-2.902-4.5-2.902-4.5,0c0,4.415,0,8.83,0,13.246
				C125.167,184.137,129.667,184.137,129.667,181.235L129.667,181.235z"/>
		</g>
	</g>
	<g>
		<g>
			<path fill="#191919" d="M117.365,181.235c0-4.415,0-8.83,0-13.246c0-2.902-4.5-2.902-4.5,0c0,4.415,0,8.83,0,13.246
				C112.865,184.137,117.365,184.137,117.365,181.235L117.365,181.235z"/>
		</g>
	</g>
</g>
<path fill="none" stroke="#191919" stroke-width="5" stroke-miterlimit="10" d="M89.05,74.597c0,0,11.618-10.271,22.731,0"/>
<g>
	<polygon fill="#191919" points="65.81,53.015 100.577,62.924 134.671,53.015 134.671,36.219 65.81,36.219 	"/>
	<polygon fill="#191919" points="31.605,32.35 101.448,13.79 170.84,32.35 102.761,51.838 	"/>
	<ellipse fill="#0A0A0A" cx="101.169" cy="32.272" rx="5.104" ry="2.862"/>
	<polyline fill="none" stroke="#DEC746" stroke-width="2" stroke-miterlimit="10" points="106.478,32.272 149.797,32.272 
		149.797,44.826 	"/>
	<circle fill="#DEC746" cx="149.968" cy="44.352" r="2.204"/>
	<polygon fill="#DEC746" points="146.372,56.996 153.222,56.996 152.328,53.901 152.328,48.689 150.988,45.86 148.754,45.86 
		147.265,48.391 147.265,54.348 	"/>
	<polyline fill="none" stroke="#0C0C0C" stroke-miterlimit="10" points="65.81,41.718 100.728,50.301 134.671,42.704 	"/>
</g>
</svg>
