<?xml version="1.0" encoding="utf-8"?>
<!-- Generator: Adobe Illustrator 17.0.0, SVG Export Plug-In . SVG Version: 6.00 Build 0)  -->
<!DOCTYPE svg PUBLIC "-//W3C//DTD SVG 1.1//EN" "http://www.w3.org/Graphics/SVG/1.1/DTD/svg11.dtd">
<svg version="1.1" id="Layer_1" xmlns="http://www.w3.org/2000/svg" xmlns:xlink="http://www.w3.org/1999/xlink" x="0px" y="0px"
	 width="175.714px" height="175.714px" viewBox="0 0 175.714 175.714" enable-background="new 0 0 175.714 175.714"
	 xml:space="preserve">
<path fill="#F3DCAB" d="M85.578,120.303l13.689-13.238c0,0-5.265-5.215-7.346-11.433L89.84,83.397h-8.224
	c0,0-1.404,19.857-8.825,23.066l1.404,2.407L85.578,120.303z"/>
<path fill="#191919" d="M40.9,107.546c0,0-4.814,25.459,17.45,45.651h6.218c0,0-16.247-21.07,2.206-42.578
	C66.774,110.619,44.711,111.277,40.9,107.546z"/>
<path fill="#191919" d="M130.319,107.546c0,0,4.814,25.459-17.45,45.651h-6.218c0,0,16.247-21.07-2.206-42.578
	C104.444,110.619,126.508,111.277,130.319,107.546z"/>
<path fill="#E7E5E3" d="M31.573,43.432c0,0,8.274,8.274,23.016,5.716l61.677,0.491c0,0,16.397,1.916,22.715-6.207
	c0,0,4.062,9.477-3.009,20.308c0,0-13.99-7.371-20.91-4.964l-19.105,8.875l-8.424-3.159l-8.274,1.956l-5.416,1.203l-10.229-8.274
	l-9.928-1.805l-13.539,4.663l-4.672,1.82C35.476,64.057,29.016,53.812,31.573,43.432z"/>
<g>
	<circle fill="#FFFFFF" stroke="#191919" stroke-width="5" stroke-miterlimit="10" cx="116.516" cy="85.302" r="27.078"/>
	<circle fill="#5C9464" cx="116.516" cy="85.002" r="15.645"/>
	<circle fill="#444444" cx="116.316" cy="85.102" r="7.12"/>
	<circle fill="#FFFFFF" cx="111.803" cy="80.489" r="3.309"/>
</g>
<g>
	<circle fill="#FFFFFF" stroke="#191919" stroke-width="5" stroke-miterlimit="10" cx="54.847" cy="85.202" r="27.078"/>
	<circle fill="#5C9464" cx="55.04" cy="85.002" r="15.645"/>
	<circle fill="#444444" cx="54.739" cy="85.002" r="7.12"/>
	<circle fill="#FFFFFF" cx="50.126" cy="80.489" r="3.309"/>
</g>
<g>
	<g>
		<g>
			<path fill="#191919" d="M69.579,164.078c0-3.945,0-7.889,0-11.834c0-3.386-5.25-3.386-5.25,0c0,3.945,0,7.889,0,11.834
				C64.329,167.464,69.579,167.464,69.579,164.078L69.579,164.078z"/>
		</g>
	</g>
	<g>
		<g>
			<path fill="#191919" d="M75.075,164.078c0-3.945,0-7.889,0-11.834c0-3.386-5.25-3.386-5.25,0c0,3.945,0,7.889,0,11.834
				C69.825,167.464,75.075,167.464,75.075,164.078L75.075,164.078z"/>
		</g>
	</g>
	<g>
		<g>
			<path fill="#191919" d="M64.084,164.078c0-3.945,0-7.889,0-11.834c0-3.386-5.25-3.386-5.25,0c0,3.945,0,7.889,0,11.834
				C58.834,167.464,64.084,167.464,64.084,164.078L64.084,164.078z"/>
		</g>
	</g>
</g>
<g>
	<g>
		<g>
			<path fill="#191919" d="M106.606,164.128c0-3.945,0-7.889,0-11.834c0-3.386-5.25-3.386-5.25,0c0,3.945,0,7.889,0,11.834
				C101.356,167.514,106.606,167.514,106.606,164.128L106.606,164.128z"/>
		</g>
	</g>
	<g>
		<g>
			<path fill="#191919" d="M112.101,164.128c0-3.945,0-7.889,0-11.834c0-3.386-5.25-3.386-5.25,0c0,3.945,0,7.889,0,11.834
				C106.851,167.514,112.101,167.514,112.101,164.128L112.101,164.128z"/>
		</g>
	</g>
	<g>
		<g>
			<path fill="#191919" d="M101.11,164.128c0-3.945,0-7.889,0-11.834c0-3.386-5.25-3.386-5.25,0c0,3.945,0,7.889,0,11.834
				C95.86,167.514,101.11,167.514,101.11,164.128L101.11,164.128z"/>
		</g>
	</g>
</g>
<path fill="none" stroke="#191919" stroke-width="5" stroke-miterlimit="10" d="M75.198,68.855c0,0,10.38-9.176,20.308,0"/>
<g>
	<polygon fill="#191919" points="54.434,49.573 85.496,58.426 115.957,49.573 115.957,34.567 54.434,34.567 	"/>
	<polygon fill="#191919" points="23.875,31.111 86.274,14.528 148.271,31.111 87.447,48.522 	"/>
	<ellipse fill="#0A0A0A" cx="86.025" cy="31.041" rx="4.56" ry="2.557"/>
	<polyline fill="none" stroke="#DEC746" stroke-width="2" stroke-miterlimit="10" points="90.768,31.041 129.471,31.041 
		129.471,42.257 	"/>
	<circle fill="#DEC746" cx="129.623" cy="41.833" r="1.969"/>
	<polygon fill="#DEC746" points="126.411,53.13 132.531,53.13 131.732,50.365 131.732,45.708 130.535,43.18 128.539,43.18 
		127.209,45.442 127.209,50.764 	"/>
	<polyline fill="none" stroke="#0C0C0C" stroke-miterlimit="10" points="54.434,39.48 85.631,47.149 115.957,40.361 	"/>
</g>
</svg>
