<?xml version="1.0" encoding="utf-8"?>
<!-- Generator: Adobe Illustrator 17.0.0, SVG Export Plug-In . SVG Version: 6.00 Build 0)  -->
<!DOCTYPE svg PUBLIC "-//W3C//DTD SVG 1.1//EN" "http://www.w3.org/Graphics/SVG/1.1/DTD/svg11.dtd">
<svg version="1.1" id="Layer_1" xmlns="http://www.w3.org/2000/svg" xmlns:xlink="http://www.w3.org/1999/xlink" x="0px" y="0px"
	 width="494.29px" height="498.238px" viewBox="0 0 494.29 498.238" enable-background="new 0 0 494.29 498.238"
	 xml:space="preserve">
<circle fill="#3387E2" cx="247.145" cy="248.645" r="247.145"/>
<path fill="#3B1F15" d="M181.651,216.794l-5.673,2.687l-19.608-2.687l3.285-33.444c0,0-0.299-50.763,6.37-63.105
	c0,0,6.967-30.856,24.585-41.506c0,0,15.926-14.233,53.45-14.233c0,0,41.506-1.991,56.735,12.641s14.632,11.247,23.59,30.159
	c0,0,11.247,36.131,9.953,51.459c0,0,1.593,32.548,0.1,35.833c-1.393,3.285-2.787,33.842-2.787,33.842l-32.846,9.953l-66.987-31.553
	L181.651,216.794z"/>
<path fill="#DB9B71" d="M210.516,292.839c0,0,6.271,18.912,3.285,41.108l28.168,19.21l14.93,1.991c0,0,12.94-12.94,13.935-13.238
	c0.995-0.299,9.953-13.935,9.953-13.935s-0.1-25.282,1.991-29.562L210.516,292.839z"/>
<path fill="#F5B483" d="M170.204,243.867c0,0,15.926,40.809,48.274,58.228c0,0,16.622,9.456,29.164,9.456
	c6.37,0,12.641-2.687,18.613-4.579c11.546-3.583,20.604-11.148,29.263-19.31c6.171-5.873,11.944-12.243,16.921-19.21
	c1.393-1.891,13.437-24.486,12.541-24.585c0,0,11.447,1.493,14.433-10.451c0,0,10.949-35.833,3.484-45.786
	c0,0-7.963-7.465-14.433-3.981l-3.484,28.865l-5.474-0.995l-1.991-54.246l-23.888-29.86l-67.684,42.601l-1.294-18.215
	l-13.935,10.252l-0.994-15.927l-14.632,8.958l-0.697-20.603l-15.229,19.21l-3.981,56.735l-4.977,1.493v-28.368
	c0,0-16.921-4.479-20.405,9.456s4.977,38.321,4.977,38.321S158.26,246.853,170.204,243.867z"/>
<path fill="#0C0C0C" d="M69.674,422.826c0,0,5.972-38.42,12.442-44.99c0,0,16.423-14.532,34.339-21.5l67.045-18.079l27.016-9.667
	l37.126,15.803l36.858-12.136l27.333,6c0,0,74.362,18.578,81.827,25.545c0,0,14.93,5.972,20.902,16.025
	c0,0,11.447,38.42,10.949,42.999C425.511,422.826,261.279,593.628,69.674,422.826z"/>
<polygon fill="#D4D7D9" points="199.5,344.257 297.167,344.257 251.833,448.257 244.5,450.257 "/>
<polygon fill="#6EB5D3" points="229.167,347.59 241.833,366.924 232.5,416.257 239.167,443.59 247.145,451.257 257.5,442.924 
	261.167,408.924 252.5,367.257 263.167,350.257 267.167,342.59 226.833,342.59 "/>
<polygon fill="#484954" points="183.5,338.257 190.5,394.757 206,391.757 194.75,405.757 247.145,460.757 299.5,406.59 
	287.167,391.924 303.5,395.257 311.833,338.257 299.167,332.257 281.833,358.924 247.535,444.59 213.167,359.257 196.167,332.257 
	"/>
<polygon fill="#F1FAFF" points="195.833,332.257 206.833,322.257 247.145,340.924 287.167,322.257 299.167,332.257 281.167,359.257 
	247.145,342.257 213.167,359.257 "/>
</svg>
