<?xml version="1.0" encoding="utf-8"?>
<!-- Generator: Adobe Illustrator 17.0.0, SVG Export Plug-In . SVG Version: 6.00 Build 0)  -->
<!DOCTYPE svg PUBLIC "-//W3C//DTD SVG 1.1//EN" "http://www.w3.org/Graphics/SVG/1.1/DTD/svg11.dtd">
<svg version="1.1" id="Layer_1" xmlns="http://www.w3.org/2000/svg" xmlns:xlink="http://www.w3.org/1999/xlink" x="0px" y="0px"
	 width="595.28px" height="593.697px" viewBox="0 0 595.28 593.697" enable-background="new 0 0 595.28 593.697"
	 xml:space="preserve">
<circle fill="#FFFFFF" cx="299.565" cy="296.849" r="296.849"/>
<path fill="#3B1F15" d="M220.9,258.592l-6.814,3.227l-23.551-3.227l3.946-40.17c0,0-0.359-60.972,7.651-75.796
	c0,0,8.368-37.061,29.529-49.853c0,0,19.129-17.095,64.199-17.095c0,0,49.853-2.391,68.145,15.183s17.575,13.509,28.334,36.224
	c0,0,13.509,43.397,11.955,61.808c0,0,1.913,39.094,0.12,43.039c-1.673,3.946-3.348,40.648-3.348,40.648l-39.452,11.955
	l-80.459-37.899L220.9,258.592z"/>
<path fill="#D3976F" d="M255.57,349.93c0,0,7.532,22.715,3.946,49.375l33.833,23.073l17.933,2.391c0,0,15.542-15.542,16.737-15.9
	c1.195-0.359,11.955-16.737,11.955-16.737s-0.12-30.366,2.391-35.507L255.57,349.93z"/>
<path fill="#E1AC84" d="M207.15,291.11c0,0,19.129,49.016,57.982,69.938c0,0,19.965,11.358,35.029,11.358
	c7.651,0,15.183-3.227,22.356-5.5c13.868-4.304,24.748-13.39,35.148-23.193c7.412-7.054,14.346-14.705,20.324-23.073
	c1.673-2.271,16.139-29.41,15.063-29.529c0,0,13.749,1.793,17.336-12.553c0,0,13.151-43.039,4.185-54.994
	c0,0-9.564-8.966-17.336-4.782l-4.185,34.67l-6.575-1.195l-2.391-65.155l-28.692-35.865l-81.296,51.169l-1.554-21.878
	l-16.737,12.314l-1.194-19.13l-17.575,10.76l-0.837-24.746l-18.292,23.073l-4.782,68.145l-5.978,1.793v-34.073
	c0,0-20.324-5.38-24.509,11.358c-4.185,16.737,5.978,46.028,5.978,46.028S192.804,294.696,207.15,291.11z"/>
<path fill="#0E0B0E" d="M86.403,506.059c0,0,7.173-46.147,14.944-54.038c0,0,19.726-17.455,41.245-25.824l80.528-21.715
	l32.449-11.611l44.592,18.981l44.271-14.577l32.83,7.207c0,0,89.317,22.314,98.283,30.682c0,0,17.933,7.173,25.106,19.248
	c0,0,13.749,46.147,13.151,51.647C513.802,506.059,316.542,711.211,86.403,506.059z"/>
<polygon fill="#D3D6D8" points="242.338,411.689 359.647,411.689 305.196,536.605 296.388,539.007 "/>
<polygon fill="#6AAAC4" points="277.972,415.692 293.185,438.915 281.975,498.169 289.983,530.999 299.565,540.208 312.003,530.199 
	316.407,489.361 305.997,439.315 318.809,418.896 323.614,409.687 275.168,409.687 "/>
<polygon fill="#484853" points="223.12,404.483 231.528,472.345 250.145,468.742 236.633,485.557 299.565,551.619 362.449,486.558 
	347.636,468.943 367.254,472.946 377.263,404.483 362.049,397.276 341.229,429.306 300.034,532.2 258.754,429.706 238.335,397.276 
	"/>
<polygon fill="#EFF7FC" points="237.934,397.276 251.146,385.265 299.565,407.686 347.636,385.265 362.049,397.276 340.429,429.706 
	299.565,409.287 258.754,429.706 "/>
</svg>
