<?xml version="1.0" encoding="utf-8"?>
<!-- Generator: Adobe Illustrator 17.0.0, SVG Export Plug-In . SVG Version: 6.00 Build 0)  -->
<!DOCTYPE svg PUBLIC "-//W3C//DTD SVG 1.1//EN" "http://www.w3.org/Graphics/SVG/1.1/DTD/svg11.dtd">
<svg version="1.1" id="Layer_1" xmlns="http://www.w3.org/2000/svg" xmlns:xlink="http://www.w3.org/1999/xlink" x="0px" y="0px"
	 width="130px" height="129.088px" viewBox="0 0 130 129.088" enable-background="new 0 0 130 129.088" xml:space="preserve">
<g id="Layer_1_1_" display="none">
	<circle display="inline" fill="#70A084" stroke="#FFFFFF" stroke-miterlimit="10" cx="-227.343" cy="5.374" r="65"/>
	<path display="inline" fill="#391D13" d="M-214.332-40.202c1.885,1.387,3.482,3.141,5.236,5.262
		c5.105,6.178,9.607,13.482,11.152,21.44c2.853,14.503-8.743,28.927-23.298,29.634c-3.22,0.157-6.623,0.209-9.921,0.157
		c-2.199-0.026-4.424,0.157-6.597-0.209c-5.942-0.995-11.152-4.974-14.764-9.66c-1.597-2.068-3.089-4.398-3.927-6.885
		c-2.277-6.675-0.811-13.534,1.702-19.843c1.545-3.848,3.429-7.565,5.733-10.995c3.822-5.681,7.932-10.497,14.974-11.99
		c4.529-0.969,9.476-0.969,14.005,0.34C-217.736-42.296-215.929-41.38-214.332-40.202z"/>
	<path display="inline" d="M-268.626,55.558c0,0,1.492-13.874,3.141-16.309c0,0,2.539-5.497,11.335-7.853
		c0,0,7.408-1.649,10.209-1.754l33.429-0.183c0,0,5.419,0.183,11.518,2.539c0,0,6.466,3.063,8.639,6.099
		c0,0,2.094,2.016,3.848,17.461C-186.531,55.558-224.385,88.804-268.626,55.558z"/>
	<path display="inline" fill="#D39266" d="M-236.819,16.186c0,0,2.304,6.387-0.654,10.314l-0.445,10.393l11.518,15.707l10.55-15.969
		c0,0-1.126-9.738-1.047-10.079c0.079-0.34-4.005-4.136-0.707-11.571L-236.819,16.186z"/>
	<path display="inline" fill="#E29D6D" d="M-246.636,1.238c0,0,4.058,13.613,14.529,18.063c0,0,4.712,2.487,8.901,0
		c0,0,9.817-3.141,14.529-18.063c-0.052,0.183,1.414-0.157,1.492-0.183c1.361-0.733,1.675-2.435,1.99-3.822
		c0.445-1.99,0.969-4.005,0.916-6.047c-0.052-1.806-0.262-3.586-2.225-4.215c-0.654,0.654-1.099,1.518-1.204,2.435l-0.707,0.079
		l0.183-3.586c0,0-7.853-2.696-8.979-14.476c0,0-14.136,13.796-29.398,13.613c-0.183,0.34,0,1.283,0,1.649c0,0.576,0,1.152,0,1.728
		c0,0.393,0,0.759-0.183,1.073c-0.183-0.052-0.471-0.105-0.628-0.209c-0.393-0.288-0.288-0.419-0.393-0.838
		c-0.157-0.628-0.026-1.518-0.995-1.518c-0.864,0-1.675,1.204-1.806,1.937C-251.034-9.259-250.746,2.469-246.636,1.238z"/>
	<g display="inline">
		<path fill="none" stroke="#3D2828" stroke-miterlimit="10" d="M-236.505,32.416c0,0,5.471,7.984,8.639,11.126l0.497,0.681
			l0.681-0.55c0,0,7.723-9.136,8.743-11.283"/>
		<circle fill="#D3950B" cx="-227.186" cy="43.961" r="1.021"/>
	</g>
	<polygon display="inline" fill="#EAEAEA" points="-243.94,29.641 -237.317,26.055 -235.641,34.694 -227.212,48.673 
		-218.547,34.798 -217.055,26.055 -210.51,29.458 -212.264,40.636 -216.636,39.772 -213.495,43.777 -227.212,60.872 -240.72,43.463 
		-237.736,39.851 -241.767,40.819 	"/>
	<polygon display="inline" fill="#D3950B" points="-207.709,0.348 -206.924,1.971 -207.709,3.385 -208.364,1.971 	"/>
	<polygon display="inline" fill="#D3950B" points="-247.631,0.61 -246.846,2.233 -247.631,3.647 -248.285,2.233 	"/>
</g>
<g id="Layer_2" display="none">
	<circle display="inline" fill="#A3D5E0" cx="-58.783" cy="-0.385" r="65"/>
	<path display="inline" fill="#633232" d="M-37.657-34.259c0.026,2.12,0.236,4.267,0.55,6.335c0.262,1.649,0.602,3.325,1.204,4.895
		c1.126,2.984,3.429,5.576,4.686,8.586c3.455,8.246,2.435,17.225,1.885,25.942c-0.288,4.607-0.602,9.293-2.12,13.691
		c-0.812,2.356-2.67,1.78-4.921,1.937c-2.382,0.157-4.764,0.34-7.147,0.497c-4.869,0.34-9.738,0.681-14.607,1.021
		c-3.534,0.262-7.094,0.497-10.628,0.759c-2.068,0.157-4.136,0.497-6.204,0.157c-2.225-0.366-8.979-0.471-9.895-3.272
		c-1.859-6.414-2.958-13.037-3.22-19.686c-0.262-6.073-0.654-13.01,1.204-18.874c1.44-4.555,4.45-8.377,6.911-12.408
		c0,0,1.754-9.45,1.23-9.634c-0.524-0.183,9.581,1.099,9.581,1.099l14.66,2.33L-37.657-34.259z"/>
	<path display="inline" fill="#D69060" d="M-68.495,10.322c0,0,2.592,7.382-0.157,11.806v5.471l1.963,3.141l5.628,0.733l6.23-0.34
		l4.136,0.34l0.602-4.398l2.356-2.696l-1.361-2.016c0,0-2.277-5.969-0.34-11.78L-68.495,10.322z"/>
	<path display="inline" fill="#E29D6D" d="M-77.84-4.469c0,0,4.058,13.613,14.529,18.063c0,0,4.712,2.487,8.901,0
		c0,0,9.817-3.141,14.529-18.063c-0.052,0.183,1.414-0.157,1.492-0.183c1.361-0.733,1.675-2.435,1.99-3.822
		c0.445-1.99,0.969-4.005,0.916-6.047c-0.052-1.806-0.262-3.586-2.225-4.215c-0.654,0.654-1.099,1.518-1.204,2.435l-0.707,0.079
		l0.183-3.586c0,0-7.853-2.696-8.979-14.476c0,0-14.136,13.796-29.398,13.613c-0.183,0.34,0,1.283,0,1.649c0,0.576,0,1.152,0,1.728
		c0,0.393,0,0.759-0.183,1.073c-0.183-0.052-0.471-0.105-0.628-0.209c-0.393-0.288-0.288-0.419-0.393-0.838
		c-0.157-0.628-0.026-1.518-0.995-1.518c-0.864,0-1.675,1.204-1.806,1.937C-82.238-14.966-81.95-3.238-77.84-4.469z"/>
	<path display="inline" fill="#337280" d="M-99.751,50.505c0,0,2.068-15.366,3.141-16.99c0,0,2.67-6.152,14.712-8.796l13.351-2.592
		c0,0,0.733,7.644,10.183,7.644c0,0,7.565,0.314,9.398-7.644c0,0,14.686,2.33,18.639,4.529c0,0,6.623,1.911,9.45,6.832
		c0,0,1.492,4.581,2.487,10.969l0.733,5.366c0,0-7.251,6.649-19.843,10.995C-53.102,66.238-76.558,68.175-99.751,50.505z"/>
	<path display="inline" fill="#161616" d="M-79.804-25.568c0,0,23.56-5.262,43.168,0l0.602-19.267l-22.696,6.806l-21.545-6.806
		L-79.804-25.568z"/>
	<path display="inline" fill="#161616" d="M-74.647-37.008l16.492,4.476c8.979-2.251,17.932-4.476,26.911-6.728
		c3.403-0.838,7.487-1.361,10.707-2.565c0.471-0.183,0.864-0.602,0.759-1.047c-0.052-0.314-0.262-0.602-0.576-0.733
		c-3.848-1.859-7.199-2.435-10.812-3.325c-5.602-1.387-11.257-2.67-16.885-3.953c-2.592-0.602-5.314-1.021-7.853-1.78
		c-2.565-0.759-4.921,0.236-7.356,0.89c-2.251,0.602-4.529,1.152-6.806,1.728c-5.576,1.387-11.178,2.723-16.78,4.058
		c-2.749,0.654-5.497,1.309-8.246,1.937c0,0-2.487,1.361,0.654,2.408l10.471,2.853l-2.094,3.56c0,0-4.581,1.283-1.44,4.948
		c0,0-0.654,8.901-11.649,15.89c0,0,1.283,2.67,6.414,3.77c0,0,5.157,0.995,7.67-5.34c0,0,2.539-4.581,2.016-14.319
		c0,0,2.749-1.152,1.047-4.031C-83.704-37.191-72.552-39.521-74.647-37.008z"/>
</g>
<g id="Layer_3">
	<circle fill="#E6312F" cx="65" cy="64.544" r="64.544"/>
	<path fill="#3B1F15" d="M47.896,56.226l-1.482,0.702l-5.121-0.702l0.858-8.734c0,0-0.078-13.257,1.664-16.48
		c0,0,1.82-8.058,6.421-10.84c0,0,4.159-3.717,13.959-3.717c0,0,10.84-0.52,14.817,3.301c3.977,3.821,3.821,2.937,6.161,7.876
		c0,0,2.937,9.436,2.599,13.439c0,0,0.416,8.5,0.026,9.358c-0.364,0.858-0.728,8.838-0.728,8.838l-8.578,2.599l-17.494-8.24
		L47.896,56.226z"/>
	<path fill="#DB9B71" d="M55.434,76.085c0,0,1.638,4.939,0.858,10.736l7.356,5.017l3.899,0.52c0,0,3.379-3.379,3.639-3.457
		c0.26-0.078,2.599-3.639,2.599-3.639s-0.026-6.603,0.52-7.72L55.434,76.085z"/>
	<path fill="#F5B483" d="M44.906,63.296c0,0,4.159,10.658,12.607,15.207c0,0,4.341,2.469,7.616,2.469
		c1.664,0,3.301-0.702,4.861-1.196c3.015-0.936,5.381-2.911,7.642-5.043c1.612-1.534,3.119-3.197,4.419-5.017
		c0.364-0.494,3.509-6.395,3.275-6.421c0,0,2.989,0.39,3.769-2.729c0,0,2.859-9.358,0.91-11.957c0,0-2.08-1.95-3.769-1.04
		l-0.91,7.538l-1.43-0.26l-0.52-14.167l-6.239-7.798L59.463,44.008l-0.338-4.757l-3.639,2.677l-0.26-4.159l-3.821,2.339
		l-0.182-5.381l-3.977,5.017l-1.04,14.817l-1.3,0.39v-7.408c0,0-4.419-1.17-5.329,2.469c-0.91,3.639,1.3,10.008,1.3,10.008
		S41.787,64.076,44.906,63.296z"/>
	<path fill="#E8F2F4" d="M18.652,110.294c0,0,1.56-10.034,3.249-11.749c0,0,4.289-3.795,8.968-5.615l22.355-7.304l2.989-0.78
		l8.916,4.965l8.89-4.965l8.058,2.469c0,0,19.236,5.745,21.185,7.564c0,0,3.899,1.56,5.459,4.185c0,0,2.989,10.034,2.859,11.23
		C111.582,110.294,68.691,154.9,18.652,110.294z"/>
	<path fill="#EBBD4B" d="M61.647,88.822h7.356l-0.468,6.031l-0.208,1.274l4.809,33.273c0,0-9.332,1.092-16.168,0l5.277-33.273
		l-1.43-1.326L61.647,88.822z"/>
	<path fill="#AA883B" d="M62.245,97.946c0,0,3.093-1.222,6.239-0.078l1.3-3.119l0.52-0.13l-0.728-2.859l-1.82-0.624l-2.21-0.468
		L63.7,90.876l-2.313,4.133l0.208,0.884L62.245,97.946z"/>
	<path fill="#9AAEB2" d="M54.992,89.472l0.988-4.081c0,0,4.367,3.691,9.02,5.251c0,0,5.147-1.43,8.786-5.251l1.222,3.821
		c0,0-1.82,5.719-6.707,8.786c0,0-1.95-5.953-3.197-5.901c0,0-1.612,0.078-2.885,5.901C62.245,97.998,56.448,93.605,54.992,89.472z"
		/>
	<path fill="#C9DEE3" d="M54.992,87.601l0.988-4.081c0,0,4.367,3.691,9.02,5.251c0,0,5.147-1.43,8.786-5.251l1.222,3.821
		c0,0-1.82,5.719-6.707,8.786c0,0-1.95-5.953-3.197-5.901c0,0-1.612,0.078-2.885,5.901C62.245,96.127,56.448,91.734,54.992,87.601z"
		/>
	<path fill="#010202" d="M81.454,53.912c-0.182-1.716-0.962-3.379-2.262-4.575c-1.352-1.248-3.093-1.924-4.913-1.924
		c-3.249,0-6.057,2.158-6.94,5.251c-0.546-0.546-1.456-0.91-2.287-0.91c-0.832,0-1.742,0.364-2.287,0.91
		c-0.884-3.093-3.691-5.251-6.94-5.251c-1.82,0-3.587,0.676-4.913,1.924c-1.3,1.222-2.106,2.859-2.262,4.575h-1.144v1.404h1.144
		c0.182,1.716,0.962,3.379,2.262,4.575c1.352,1.248,3.093,1.924,4.913,1.924c3.977,0,7.226-3.223,7.226-7.2l0,0l0,0
		c0-0.78,0.91-1.69,2.028-1.69s2.028,0.91,2.028,1.69l0,0l0,0c0,3.977,3.249,7.2,7.226,7.2c1.82,0,3.587-0.676,4.913-1.924
		c1.3-1.196,2.106-2.859,2.262-4.575h1.144v-1.404H81.454L81.454,53.912z M74.28,60.645c-3.327,0-6.031-2.703-6.031-6.031
		c0-3.327,2.703-6.031,6.031-6.031c3.327,0,6.031,2.703,6.031,6.031C80.311,57.941,77.607,60.645,74.28,60.645z M55.798,60.645
		c-3.327,0-6.031-2.703-6.031-6.031c0-3.327,2.703-6.031,6.031-6.031c3.327,0,6.031,2.703,6.031,6.031
		C61.855,57.941,59.151,60.645,55.798,60.645z"/>
</g>
<g id="Layer_4" display="none">
	<circle display="inline" fill="#FAEF85" cx="-227.631" cy="179.772" r="65"/>
	<g display="inline">
		<g>
			<path fill="#DB9B71" d="M-210.877,185.584c0,0,1.387,4.188,0.733,9.136l6.257,4.267l3.325,0.445c0,0,2.88-2.88,3.089-2.958
				c0.209-0.079,2.199-3.089,2.199-3.089s-0.026-5.628,0.445-6.571L-210.877,185.584z"/>
			<path fill="#E8F2F4" d="M-241.898,214.694c0,0,1.335-8.534,2.775-9.974c0,0,3.639-3.22,7.618-4.764l19.005-6.204l2.539-0.654
				l7.565,4.241l7.565-4.241l6.859,2.12c5.916,1.963,11.963,3.77,17.67,6.283c0.393,0.157,3.351,1.675,3.22,1.963
				c0,0-4.66,12.382-11.126,18.796c0,0-4.791,5.89-13.691,11.963C-206.95,244.537-231.139,251.893-241.898,214.694z"/>
			<path fill="#EBBD4B" d="M-205.563,196.448h6.257l-0.393,5.995l-0.183,1.257l4.031,32.801c0,0-0.34,0.34-0.733,0.393
				c-1.937,0.34-8.115,0.733-12.984-0.157l4.503-33.037l-1.204-1.309L-205.563,196.448z"/>
			<path fill="#AA883B" d="M-205.065,204.196c0,0,2.618-1.047,5.288-0.079l1.099-2.67l0.445-0.105l-0.628-2.435l-1.545-0.524
				l-1.885-0.393l-1.571,0.183l-1.963,3.534l0.183,0.759L-205.065,204.196z"/>
			<path fill="#9AAEB2" d="M-211.243,196.997l0.838-3.482c0,0,3.717,3.141,7.67,4.45c0,0,4.372-1.204,7.487-4.45l1.047,3.246
				c0,0-1.545,4.869-5.707,7.487c0,0-1.675-5.052-2.723-5.026c0,0-1.361,0.079-2.435,5.026
				C-205.065,204.249-210.013,200.505-211.243,196.997z"/>
			<path fill="#C9DEE3" d="M-211.243,195.401l0.838-3.482c0,0,3.717,3.141,7.67,4.45c0,0,4.372-1.204,7.487-4.45l1.047,3.246
				c0,0-1.545,4.869-5.707,7.487c0,0-1.675-5.052-2.723-5.026c0,0-1.361,0.079-2.435,5.026
				C-205.065,202.652-210.013,198.908-211.243,195.401z"/>
		</g>
		<path fill="#3B1F15" d="M-211.505,171.683l-3.403,0.916l-4.45,1.623c-2.147-7.016-5.34-14.424-4.817-21.885
			c0.236-3.56,2.382-7.251,5.681-8.743c1.073-0.497,2.068-0.288,3.194-0.314c-0.157,0,0.393-1.492,0.419-1.544
			c1.126-2.147,3.194-3.534,5.34-4.529c4.529-2.12,11.126-1.361,15.445,0.942c1.257,0.681,2.487,1.518,3.272,2.749
			c0.497,0.785,0.759,1.649,1.152,2.487c0.026,0.052,0.812,0.079,0.89,0.079c0.759,0.105,1.518,0.314,2.251,0.602
			c6.23,2.565,5.89,10.995,4.686,16.414c-0.497,2.225-1.021,4.45-1.545,6.675c-0.079,0.366-0.576,3.796-0.916,3.901l-7.016,2.12
			l-14.319-6.728L-211.505,171.683z"/>
		<path fill="#F5B483" d="M-218.94,175.793c0,0,3.377,8.639,10.236,12.33c0,0,3.534,1.99,6.178,2.016
			c1.335,0,2.67-0.576,3.927-0.969c2.435-0.759,4.372-2.356,6.204-4.084c1.309-1.23,2.539-2.592,3.586-4.058
			c0.288-0.393,2.853-5.183,2.644-5.209c0,0,2.435,0.314,3.063-2.225c0,0,2.33-7.592,0.733-9.712c0,0-1.675-1.571-3.063-0.838
			l-0.733,6.126l-1.152-0.209l-0.419-11.492l-5.052-6.335l-14.346,9.031l-0.288-3.874l-2.958,2.173l-0.209-3.377l-3.089,1.911
			l-0.131-4.346l-3.246,4.084l-0.838,12.016l-1.047,0.314v-6.021c0,0-3.586-0.942-4.319,2.016c-0.733,2.958,1.047,8.115,1.047,8.115
			S-221.479,176.448-218.94,175.793z"/>
	</g>
	<g display="inline">
		<path fill="#444444" d="M-282.395,214.798c0,0,0.681-7.147,2.068-9.162c0,0,2.094-4.555,9.398-6.518c0,0,7.382-2.173,9.686-2.251
			h24.817c0,0,6.152,0.785,11.23,2.749c0,0,5.366,2.539,7.173,5.079c0,0,3.482,5.34,4.791,22.12c0,0-26.073,32.618-59.215,0.052
			C-275.746,223.62-278.783,219.982-282.395,214.798z"/>
		<path fill="#3D2828" d="M-248.678,137.73c0,0,19.084-1.859,23.403,24.267c0,0,3.403,15.89-2.487,22.932
			c0,0-3.586,3.717-10.864,3.325l-22.304,0.026c0,0-7.67,0.838-10.812-6.911c-2.906-7.173-1.178-15.759,0.471-23.063
			c0.942-4.11,2.539-8.141,5-11.649c1.78-2.513,4.058-4.738,6.806-6.309C-255.982,138.385-252.552,138.123-248.678,137.73z"/>
		<path fill="#F2B9A7" d="M-258.547,196.605c0,0,4.529-0.759,4.921-8.927h9.764c0,0-0.183,7.225,5.157,9.241l-8.22,12.984
			l-1.335,0.654l-0.393,0.471l-1.754-0.89L-258.547,196.605z"/>
		<polygon fill="#B3B2B4" points="-250.275,210.296 -248.73,211.081 -247.238,210.296 -248.076,208.961 -248.678,210.95 
			-248.757,210.924 -249.411,208.961 		"/>
		<polygon fill="#C7C5C7" points="-258.94,196.029 -249.359,208.961 -248.678,211.029 -248.181,208.908 -238.416,196.029 
			-238.181,197.076 -246.505,211.971 -248.102,209.144 -248.678,211.264 -249.411,209.17 -251.008,211.971 -259.332,196.945 		"/>
		<path fill="#F9C8B5" d="M-264.699,175.688c0,0,3.377,11.283,12.042,14.974c0,0,3.901,2.068,7.382,0c0,0,8.141-2.618,12.042-14.974
			c-0.052,0.157,1.178-0.131,1.23-0.157c1.152-0.628,1.387-2.016,1.649-3.168c0.367-1.649,0.812-3.325,0.759-5.026
			c-0.052-1.518-0.209-2.984-1.859-3.482c-0.55,0.55-0.916,1.257-0.995,2.016l-0.576,0.079l0.157-2.958
			c0,0-6.518-2.251-7.461-12.016c0,0-11.728,11.44-24.398,11.283c-0.157,0.262,0,1.047,0,1.361c0,0.471,0,0.942,0,1.414
			c0,0.314,0,0.628-0.157,0.89c-0.157-0.026-0.393-0.079-0.524-0.183c-0.34-0.236-0.236-0.367-0.314-0.707
			c-0.131-0.524-0.026-1.257-0.811-1.257c-0.707,0-1.387,0.995-1.518,1.623C-268.338,166.971-268.102,176.709-264.699,175.688z"/>
		<g>
			<path fill="none" stroke="#3D2828" stroke-miterlimit="10" d="M-257.579,196.317c0,0,5.183,7.565,8.168,10.55l0.471,0.654
				l0.654-0.524c0,0,7.33-8.665,8.298-10.681"/>
			<circle fill="#DA6760" cx="-248.757" cy="207.259" r="0.969"/>
		</g>
	</g>
	<g display="inline">
		<path fill="#2C2C2C" d="M-243.416,194.798c0,0-1.911-14.215,6.021-18.246c0,0,4.267-2.147,10.393-2.147
			c0,0,8.822-0.209,12.644,4.241c0,0,3.665,3.22,3.586,10.654v6.806l-2.356,5.052h-27.565l-2.094-3.927L-243.416,194.798z"/>
		<path fill="#194994" d="M-257.421,237.547c0,0-0.471-6.702,2.723-9.188c0,0,3.927-3.743,14.084-6.099h26.911
			c0,0,9.948,2.225,14.398,6.152c0,0,2.33,1.728,2.723,8.455C-196.584,236.893-224.385,254.039-257.421,237.547z"/>
		<path fill="#DB9E69" d="M-237.788,221.369c0,0,4.241-0.183,5.55-5.262h10.288c0,0,0.576,4.686,5.262,5.183
			c0,0,0.209,7.853-10.34,9.267C-227.029,230.531-237.186,229.484-237.788,221.369z"/>
		<path fill="#F9BA80" d="M-241.322,197.233c0,0-0.445-5.759,2.88-8.639c0,0,5.681,1.387,9.686,5.942c0,0,1.309-2.016-0.602-5.419
			c0,0,5.681,1.126,9.346,5.497c0,0-0.524-5.314-4.372-7.592c0,0,4.188-1.23,10.995,5.105c0,0,0.707,4.136,0.602,5.445
			c0,0,0.602-2.094,2.016-2.801c0,0,1.832-1.492,2.016,1.047c0,0,0.262,4.712-2.696,6.623c0,0-3.22,13.796-15.524,14.738
			c0,0-10.733,0.602-15.707-14.581c0,0-2.173-1.571-2.801-6.204c0,0,0-1.832,0.969-2.016
			C-244.542,194.458-242.971,194.092-241.322,197.233z"/>
		<path fill="#CFDFF4" d="M-217.003,221.16c0,0,3.325,1.099,3.351,1.126c0.105,0.026-0.026,1.021-0.052,1.099
			c-0.864,4.948-4.581,7.487-9.11,9.241c-2.016,0.785-4.503,0.942-6.649,0.419c-1.545-0.367-3.22-0.942-4.633-1.649
			c-1.649-0.838-3.168-1.937-4.346-3.377c-0.628-0.785-1.126-1.623-1.492-2.565c-0.105-0.288-0.969-3.063-0.681-3.168
			c0,0,3.325-1.073,3.403-1.099c-0.131,0.052,0.079,1.283,0.105,1.361c0.209,1.126,0.707,2.173,1.387,3.089
			c0.89,1.204,2.094,2.12,3.403,2.801c2.382,1.23,4.948,1.937,7.565,1.204c3.272-0.916,6.387-3.089,7.408-6.518
			C-217.291,222.94-216.846,221.212-217.003,221.16z"/>
	</g>
</g>
</svg>
