<?xml version="1.0" encoding="utf-8"?>
<!-- Generator: Adobe Illustrator 17.0.0, SVG Export Plug-In . SVG Version: 6.00 Build 0)  -->
<!DOCTYPE svg PUBLIC "-//W3C//DTD SVG 1.1//EN" "http://www.w3.org/Graphics/SVG/1.1/DTD/svg11.dtd">
<svg version="1.1" id="Layer_1" xmlns="http://www.w3.org/2000/svg" xmlns:xlink="http://www.w3.org/1999/xlink" x="0px" y="0px"
	 width="509.5px" height="519.5px" viewBox="0 0 509.5 519.5" enable-background="new 0 0 509.5 519.5" xml:space="preserve">
<circle fill="#F9F9F9" cx="253" cy="254.497" r="245.885"/>
<path fill="#5ECC7A" d="M78.827,428.04c0,0,27.376-67.857,35.519-81.111c0,0-2.726-5.975,82.513-36.573h112.282
	c0,0,73.723,28.421,78.335,32.728c0,0,6.728-1.252,37.754,86.884C425.231,429.968,268.376,586.164,78.827,428.04z"/>
<g>
	<path fill="#FBC8C8" d="M333.772,196.431c-8.776,4.878-8.883,9.864-8.883,18.691v6.013h-10.27v-61.588
		c-18.927,4.55-40.74,6.593-61.619,5.351v0.062c-20.54-1.191-44.92-6.265-61.619-18.157v74.333h-10.27v15.389l20.54,51.349
		l26.214,20.519c2.922,3.281,7.107,5.155,11.502,5.155H253h13.633c4.395,0,8.58-1.874,11.502-5.155l26.214-20.519l16.468-41.167
		c14.557-1.048,19.477-23.128,19.477-39.837C340.293,202.588,337.397,198.301,333.772,196.431z"/>
	<path fill="#F7B4B4" d="M266.633,313.548H253h-13.633c-4.395,0-8.58-1.874-11.502-5.155l-26.214-20.519v20.555l51.329,41.079
		c0.005,0,0.01,0,0.021,0s0.01,0,0.021,0l51.329-41.079v-20.555l-26.214,20.519C275.214,311.674,271.029,313.548,266.633,313.548z"
		/>
	<path fill="#FBC8C8" d="M227.865,308.393l-26.214-20.519v20.54l51.329,41.079c0.005,0,0.01,0,0.021,0v-35.944h-13.633
		C234.971,313.548,230.786,311.674,227.865,308.393z"/>
	<path fill="#FBD7D7" d="M191.381,221.136h-10.27v-6.013c0-8.827-0.108-13.813-8.883-18.686c-3.625,1.864-6.521,6.152-6.521,10.434
		c0,16.704,4.919,38.789,19.477,39.837l16.468,41.167l26.214,20.519c2.922,3.281,7.107,5.155,11.502,5.155H253V164.954
		c-23.605-1.386-45.993-7.019-61.619-18.157V221.136z"/>
</g>
<g>
	<path fill="#F79392" d="M227.325,257.064h51.349c0,0,0,15.405-25.675,15.405C227.325,272.469,227.325,257.064,227.325,257.064z"/>
</g>
<g>
	<polygon fill="#FFFFFF" points="223.176,377.803 253,441.231 282.824,377.803 314.619,310.175 304.349,303.279 253,340.95 
		201.651,303.279 191.381,310.175 	"/>
</g>
<g>
	<g>
		<path fill="#3E3E3F" d="M286.377,174.921c-7.892,0-15.02,3.245-20.144,8.462c-8.308-4.267-18.157-4.267-26.46,0
			c-5.13-5.217-12.257-8.462-20.149-8.462c-15.6,0-28.242,12.642-28.242,28.242s12.642,28.242,28.242,28.242
			s28.242-12.642,28.242-28.242c0-4.55-1.099-8.832-3.009-12.637c5.186-2.27,11.107-2.27,16.293,0
			c-1.915,3.805-3.014,8.087-3.014,12.637c0,15.6,12.642,28.242,28.242,28.242s28.242-12.642,28.242-28.242
			S301.977,174.921,286.377,174.921z"/>
	</g>
	<g>
		<circle fill="#9CE5F4" cx="219.623" cy="203.163" r="17.972"/>
	</g>
	<g>
		<circle fill="#9CE5F4" cx="286.377" cy="203.163" r="17.972"/>
	</g>
	<g>
		<path fill="#C9F2F8" d="M219.623,185.191c-9.926,0-17.972,8.046-17.972,17.972c0,5.094,2.141,9.669,5.546,12.945l25.366-25.366
			C229.292,187.332,224.717,185.191,219.623,185.191z"/>
	</g>
	<g>
		<path fill="#C9F2F8" d="M286.269,185.191c-9.926,0-17.972,8.046-17.972,17.972c0,5.094,2.141,9.669,5.546,12.945l25.372-25.372
			C295.943,187.332,291.368,185.191,286.269,185.191z"/>
	</g>
</g>
<g>
	<path fill="#2D2827" d="M355.698,142.063c-9.977-68.012-174.587-72.756-174.587-10.347c0,4.534,0,5.808,0,5.808
		c25.443,29.736,87.94,32.971,133.508,22.024v61.588h10.27v-6.013c0-9.299,0-14.337,10.27-19.472v-42.455
		C343.313,149.986,350.337,146.238,355.698,142.063z"/>
	<path fill="#2D2827" d="M253,87.921c-37.89,1.022-71.74,15.415-71.878,43.631c-6.116,3.553-10.28,10.105-10.28,17.695v46.399
		c10.27,5.135,10.27,10.172,10.27,19.472v6.018h10.27v-74.338c15.626,11.138,38.014,16.771,61.619,18.157V87.921H253z"/>
</g>
<path fill="#3A3B3C" d="M245.237,338.737c0,0,7.255-3.014,16.184,0c0,0,23.327-16.965,39.176-16.296c0,0,13.84,22.769,0,54.244
	c0,0-14.775,0.844-39.085-17.771c-0.004-0.003-2.361,1.276-2.528,1.34c-4.836,1.861-10.194,0.857-14.728-1.341
	c0,0-17.472,15.029-39.05,17.777c0,0-13.394-26.311,0-54.269C205.205,322.422,220.087,320.06,245.237,338.737z"/>
</svg>
