<?xml version="1.0" encoding="utf-8"?>
<!-- Generator: Adobe Illustrator 17.0.0, SVG Export Plug-In . SVG Version: 6.00 Build 0)  -->
<!DOCTYPE svg PUBLIC "-//W3C//DTD SVG 1.1//EN" "http://www.w3.org/Graphics/SVG/1.1/DTD/svg11.dtd">
<svg version="1.1" id="Layer_2" xmlns="http://www.w3.org/2000/svg" xmlns:xlink="http://www.w3.org/1999/xlink" x="0px" y="0px"
	 width="595.28px" height="595.28px" viewBox="0 0 595.28 595.28" enable-background="new 0 0 595.28 595.28" xml:space="preserve">
<g id="Layer_1_1_">
	<circle fill="#FFFFFF" stroke="#FFFFFF" stroke-miterlimit="10" cx="297.64" cy="297.64" r="297.64"/>
	<path fill="#381C14" d="M357.216,88.944c8.631,6.353,15.943,14.385,23.974,24.094c23.375,28.29,43.993,61.734,51.065,98.174
		c13.066,66.409-40.037,132.458-106.685,135.694c-14.744,0.719-30.327,0.959-45.431,0.719c-10.069-0.12-20.258,0.719-30.208-0.959
		c-27.211-4.555-51.065-22.776-67.607-44.232c-7.312-9.47-14.145-20.138-17.981-31.526c-10.429-30.567-3.716-61.973,7.792-90.862
		c7.072-17.621,15.703-34.643,26.252-50.346c17.501-26.012,36.321-48.068,68.566-54.901c20.738-4.435,43.393-4.435,64.131,1.558
		C341.633,79.355,349.904,83.55,357.216,88.944z"/>
	<path fill="#030104" d="M108.603,527.433c0,0,6.833-63.532,14.385-74.68c0,0,11.627-25.173,51.904-35.961
		c0,0,33.924-7.552,46.75-8.031l153.075-0.839c0,0,24.813,0.839,52.743,11.628c0,0,29.608,14.025,39.557,27.93
		c0,0,9.59,9.23,17.621,79.954C484.519,527.433,311.185,679.669,108.603,527.433z"/>
	<path fill="#CC8E65" d="M254.247,347.147c0,0,10.549,29.249-2.997,47.229l-2.038,47.589l52.743,71.923l48.308-73.121
		c0,0-5.154-44.592-4.795-46.15c0.36-1.558-18.34-18.94-3.237-52.983L254.247,347.147z"/>
	<path fill="#D9996C" d="M209.295,278.7c0,0,18.58,62.333,66.528,82.711c0,0,21.577,11.388,40.756,0
		c0,0,44.952-14.385,66.528-82.711c-0.24,0.839,6.473-0.719,6.833-0.839c6.233-3.356,7.672-11.148,9.11-17.501
		c2.038-9.11,4.435-18.34,4.195-27.69c-0.24-8.271-1.199-16.422-10.189-19.299c-2.997,2.997-5.035,6.953-5.514,11.148l-3.237,0.36
		l0.839-16.422c0,0-35.961-12.347-41.116-66.289c0,0-64.73,63.172-134.615,62.333c-0.839,1.558,0,5.874,0,7.552
		c0,2.637,0,5.274,0,7.911c0,1.798,0,3.476-0.839,4.915c-0.839-0.24-2.158-0.479-2.877-0.959c-1.798-1.319-1.319-1.918-1.798-3.836
		c-0.719-2.877-0.12-6.953-4.555-6.953c-3.956,0-7.672,5.514-8.271,8.87C189.157,230.632,190.475,284.334,209.295,278.7z"/>
	<g>
		<path fill="none" stroke="#3C2727" stroke-miterlimit="10" d="M255.685,421.467c0,0,25.053,36.561,39.557,50.945l2.278,3.117
			l3.117-2.517c0,0,35.362-41.835,40.037-51.664"/>
		<circle fill="#CA911C" cx="298.359" cy="474.33" r="4.675"/>
	</g>
	<polygon fill="#EBEAE9" points="221.642,408.761 251.969,392.338 259.641,431.896 298.239,495.907 337.917,432.375 
		344.749,392.338 374.717,407.921 366.686,459.106 346.667,455.151 361.052,473.491 298.239,551.767 236.386,472.052 
		250.051,455.51 231.591,459.946 	"/>
	<polygon fill="#CA911C" points="387.543,274.625 391.139,282.057 387.543,288.53 384.547,282.057 	"/>
	<polygon fill="#CA911C" points="204.74,275.823 208.336,283.255 204.74,289.729 201.743,283.255 	"/>
</g>
</svg>
